<svg width="191" height="205" viewBox="0 0 191 205" fill="none" xmlns="http://www.w3.org/2000/svg">
<g filter="url(#filter0_f_399_72)">
<path d="M101.484 36.4498C99.2656 39.6763 97.3195 43.3785 95.6403 47.4465C82.5706 79.108 85.663 132.928 102.289 157.084C109.72 167.881 125.476 168.557 134.352 158.913C154.837 136.657 165.288 83.2484 149.783 49.3532C147.234 43.7811 143.984 38.7364 139.961 34.4441" stroke="#00C48E" stroke-width="15" stroke-linecap="round"/>
<path d="M146.333 60.5819L138.956 128.849C138.899 129.371 138.45 129.76 137.926 129.741L134.636 129.625C134.161 129.609 133.764 129.261 133.685 128.792L128.396 97.4379C128.317 96.9697 127.919 96.6216 127.445 96.6049L121.707 96.4028C121.155 96.3834 120.692 96.8151 120.672 97.367L119.078 142.64C119.059 143.192 118.596 143.624 118.044 143.604L112.281 143.401C111.818 143.385 111.426 143.053 111.336 142.598L94.5859 58.7595" stroke="#00C48E" stroke-width="15" stroke-linecap="square"/>
<path d="M145.604 49.486L136.097 130.718C136.036 131.235 135.589 131.619 135.068 131.601L130.127 131.427C129.637 131.41 129.231 131.039 129.17 130.552L125.009 97.3604C124.948 96.8734 124.543 96.5027 124.052 96.4854L117.261 96.2462C116.698 96.2264 116.229 96.6759 116.226 97.2396L115.952 143.061C115.949 143.625 115.481 144.074 114.917 144.054L106.421 143.755C105.943 143.738 105.543 143.384 105.469 142.911L93.01 63.7451" stroke="#00C48E" stroke-width="15" stroke-linecap="square"/>
<path d="M57.3975 92.2999L68.2348 91.5387C71.1968 91.3307 73.6865 93.7349 73.582 96.7024L73.215 107.121C73.105 110.245 70.1878 112.503 67.1361 111.827L56.4095 109.449C54.0559 108.928 52.4097 106.801 52.4946 104.392L52.7509 97.1116C52.841 94.5553 54.8459 92.4791 57.3975 92.2999Z" fill="#00C48E"/>
<path d="M44.4554 104.773L44.7687 95.8791C44.8435 93.7552 43.5675 91.816 41.5873 91.0444L34.3869 88.2384C31.1783 86.988 27.6957 89.2796 27.5745 92.7211L27.0777 106.83C26.9554 110.301 30.3228 112.836 33.625 111.759L41.009 109.351C43.0049 108.7 44.3816 106.871 44.4554 104.773Z" fill="#00C48E"/>
<path d="M56.0414 76.6311L57.2183 69.1137C57.6096 66.6144 59.806 64.8011 62.3341 64.8902L72.9775 65.265C76.0031 65.3715 78.2405 68.1212 77.7299 71.1052L76.7805 76.6537C76.4155 78.7872 74.7191 80.4435 72.5776 80.7575L61.7066 82.3515C58.3733 82.8403 55.5203 79.9596 56.0414 76.6311Z" fill="#00C48E"/>
<path d="M47.4569 67.3696L46.2356 75.909C45.7436 79.3485 41.9801 81.2501 38.9195 79.6056L32.2482 76.0213C29.9754 74.8002 29.005 72.0502 30.008 69.6731L33.456 61.501C34.7063 58.5376 38.3889 57.5084 40.9944 59.3943L41.8924 60.0443L45.439 62.6113C46.9428 63.6998 47.7197 65.5319 47.4569 67.3696Z" fill="#00C48E"/>
<path d="M60.2032 120.213L70.9611 122.147C73.1563 122.542 74.8247 124.342 75.0508 126.561L75.5785 131.739C75.886 134.756 73.4589 137.349 70.4283 137.243L59.7663 136.867C57.2523 136.779 55.1955 134.836 54.9636 132.331L54.3399 125.595C54.0352 122.305 56.9503 119.629 60.2032 120.213Z" fill="#00C48E"/>
<path d="M46.0994 131.681L44.8706 124.213C44.3872 121.274 41.4587 119.407 38.5908 120.209L31.4862 122.195C28.7562 122.958 27.206 125.836 28.0707 128.536L30.8884 137.333C31.8719 140.403 35.4619 141.754 38.2256 140.093L43.7412 136.778C45.4974 135.723 46.432 133.703 46.0994 131.681Z" fill="#00C48E"/>
<path d="M54.1278 50.4939L53.9004 52.1814C53.3965 55.9194 49.0931 57.7748 46.0292 55.5751L42.3092 52.9044C40.4234 51.5505 39.7175 49.0767 40.6049 46.9315L41.3569 45.1136C42.666 41.9488 46.6976 41.0073 49.2731 43.2649L52.4686 46.066C53.7287 47.1707 54.3517 48.8331 54.1278 50.4939Z" fill="#00C48E"/>
<path d="M62.8411 50.6787L64.0746 48.5869C65.0056 47.0081 66.7258 46.0652 68.5575 46.1297L78.8743 46.493C81.634 46.5902 83.7924 48.9062 83.6952 51.6659L83.6552 52.8017C83.564 55.3938 81.5058 57.4857 78.9155 57.6191L67.4052 58.2119C63.4255 58.4168 60.8169 54.1114 62.8411 50.6787Z" fill="#00C48E"/>
<path d="M92.183 38.2215L93.5176 36.4468C95.9474 33.2159 93.7376 28.587 89.6975 28.4447L80.4786 28.1201C78.9207 28.0652 77.4264 28.7401 76.4375 29.9451L74.9846 31.7156C72.3584 34.9158 74.5365 39.7387 78.6737 39.8844L88.011 40.2132C89.6435 40.2707 91.2012 39.5271 92.183 38.2215Z" fill="#00C48E"/>
<path d="M52.9908 37.1719L54.3175 38.4395C56.9493 40.9541 61.3198 39.588 62.0511 36.0223C62.3371 34.6281 61.9659 33.1799 61.0446 32.0951L59.8568 30.6966C58.2342 28.7861 55.4023 28.4749 53.4036 29.9875C51.0827 31.7441 50.8864 35.1611 52.9908 37.1719Z" fill="#00C48E"/>
<path d="M38.7448 147.922L42.7654 145.219C45.9644 143.069 50.2909 145.194 50.5442 149.04L50.6259 150.28C50.7295 151.854 50.0849 153.384 48.8867 154.409L45.3152 157.463C42.6186 159.77 38.4443 158.611 37.3219 155.245L36.7911 153.653C36.0802 151.521 36.8795 149.176 38.7448 147.922Z" fill="#00C48E"/>
<path d="M63.04 156.603L62.1396 154.75C60.4926 151.36 63.0462 147.435 66.8129 147.568L75.3043 147.867C78.064 147.964 80.2225 150.28 80.1253 153.04L80.0612 154.859C79.964 157.619 77.648 159.777 74.8883 159.68L67.3614 159.415C65.5115 159.35 63.8489 158.268 63.04 156.603Z" fill="#00C48E"/>
<path d="M49.6876 162.289L50.0376 162.011C52.1144 160.361 55.2002 161.508 55.6954 164.114C55.8134 164.735 55.7624 165.376 55.5478 165.97L55.396 166.39C54.7318 168.23 52.737 169.22 50.8703 168.637C48.0713 167.762 47.3913 164.113 49.6876 162.289Z" fill="#00C48E"/>
<path d="M73.3496 175.021L72.3645 173.439C70.2476 170.041 72.7833 165.658 76.7842 165.798L83.1542 166.023C85.0169 166.088 86.6885 167.185 87.491 168.867L88.2414 170.44C89.8575 173.828 87.3038 177.722 83.5527 177.59L77.4174 177.374C75.7544 177.315 74.2295 176.433 73.3496 175.021Z" fill="#00C48E"/>
<path d="M57.3975 92.2999L68.2348 91.5387C71.1968 91.3307 73.6865 93.7349 73.582 96.7024L73.215 107.121C73.105 110.245 70.1878 112.503 67.1361 111.827L56.4095 109.449C54.0559 108.928 52.4097 106.801 52.4946 104.392L52.7509 97.1116C52.841 94.5553 54.8459 92.4791 57.3975 92.2999Z" stroke="#00C48E" stroke-width="3" stroke-linecap="square"/>
<path d="M44.4554 104.773L44.7687 95.8791C44.8435 93.7552 43.5675 91.816 41.5873 91.0444L34.3869 88.2384C31.1783 86.988 27.6957 89.2796 27.5745 92.7211L27.0777 106.83C26.9554 110.301 30.3228 112.836 33.625 111.759L41.009 109.351C43.0049 108.7 44.3816 106.871 44.4554 104.773Z" stroke="#00C48E" stroke-width="3" stroke-linecap="square"/>
<path d="M56.0414 76.6311L57.2183 69.1137C57.6096 66.6144 59.806 64.8011 62.3341 64.8902L72.9775 65.265C76.0031 65.3715 78.2405 68.1212 77.7299 71.1052L76.7805 76.6537C76.4155 78.7872 74.7191 80.4435 72.5776 80.7575L61.7066 82.3515C58.3733 82.8403 55.5203 79.9596 56.0414 76.6311Z" stroke="#00C48E" stroke-width="3" stroke-linecap="square"/>
<path d="M47.4569 67.3696L46.2356 75.909C45.7436 79.3485 41.9801 81.2501 38.9195 79.6056L32.2482 76.0213C29.9754 74.8002 29.005 72.0502 30.008 69.6731L33.456 61.501C34.7063 58.5376 38.3889 57.5084 40.9944 59.3943L41.8924 60.0443L45.439 62.6113C46.9428 63.6998 47.7197 65.5319 47.4569 67.3696Z" stroke="#00C48E" stroke-width="3" stroke-linecap="square"/>
<path d="M60.2032 120.213L70.9611 122.147C73.1563 122.542 74.8247 124.342 75.0508 126.561L75.5785 131.739C75.886 134.756 73.4589 137.349 70.4283 137.243L59.7663 136.867C57.2523 136.779 55.1955 134.836 54.9636 132.331L54.3399 125.595C54.0352 122.305 56.9503 119.629 60.2032 120.213Z" stroke="#00C48E" stroke-width="3" stroke-linecap="square"/>
<path d="M46.0994 131.681L44.8706 124.213C44.3872 121.274 41.4587 119.407 38.5908 120.209L31.4862 122.195C28.7562 122.958 27.206 125.836 28.0707 128.536L30.8884 137.333C31.8719 140.403 35.4619 141.754 38.2256 140.093L43.7412 136.778C45.4974 135.723 46.432 133.703 46.0994 131.681Z" stroke="#00C48E" stroke-width="3" stroke-linecap="square"/>
<path d="M54.1278 50.4939L53.9004 52.1814C53.3965 55.9194 49.0931 57.7748 46.0292 55.5751L42.3092 52.9044C40.4234 51.5505 39.7175 49.0767 40.6049 46.9315L41.3569 45.1136C42.666 41.9488 46.6976 41.0073 49.2731 43.2649L52.4686 46.066C53.7287 47.1707 54.3517 48.8331 54.1278 50.4939Z" stroke="#00C48E" stroke-width="3" stroke-linecap="square"/>
<path d="M62.8411 50.6787L64.0746 48.5869C65.0056 47.0081 66.7258 46.0652 68.5575 46.1297L78.8743 46.493C81.634 46.5902 83.7924 48.9062 83.6952 51.6659L83.6552 52.8017C83.564 55.3938 81.5058 57.4857 78.9155 57.6191L67.4052 58.2119C63.4255 58.4168 60.8169 54.1114 62.8411 50.6787Z" stroke="#00C48E" stroke-width="3" stroke-linecap="square"/>
<path d="M92.183 38.2215L93.5176 36.4468C95.9474 33.2159 93.7376 28.587 89.6975 28.4447L80.4786 28.1201C78.9207 28.0652 77.4264 28.7401 76.4375 29.9451L74.9846 31.7156C72.3584 34.9158 74.5365 39.7387 78.6737 39.8844L88.011 40.2132C89.6435 40.2707 91.2012 39.5271 92.183 38.2215Z" stroke="#00C48E" stroke-width="3" stroke-linecap="square"/>
<path d="M52.9908 37.1719L54.3175 38.4395C56.9493 40.9541 61.3198 39.588 62.0511 36.0223C62.3371 34.6281 61.9659 33.1799 61.0446 32.0951L59.8568 30.6966C58.2342 28.7861 55.4023 28.4749 53.4036 29.9875C51.0827 31.7441 50.8864 35.1611 52.9908 37.1719Z" stroke="#00C48E" stroke-width="3" stroke-linecap="square"/>
<path d="M38.7448 147.922L42.7654 145.219C45.9644 143.069 50.2909 145.194 50.5442 149.04L50.6259 150.28C50.7295 151.854 50.0849 153.384 48.8867 154.409L45.3152 157.463C42.6186 159.77 38.4443 158.611 37.3219 155.245L36.7911 153.653C36.0802 151.521 36.8795 149.176 38.7448 147.922Z" stroke="#00C48E" stroke-width="3" stroke-linecap="square"/>
<path d="M63.04 156.603L62.1396 154.75C60.4926 151.36 63.0462 147.435 66.8129 147.568L75.3043 147.867C78.064 147.964 80.2225 150.28 80.1253 153.04L80.0612 154.859C79.964 157.619 77.648 159.777 74.8883 159.68L67.3614 159.415C65.5115 159.35 63.8489 158.268 63.04 156.603Z" stroke="#00C48E" stroke-width="3" stroke-linecap="square"/>
<path d="M49.6876 162.289L50.0376 162.011C52.1144 160.361 55.2002 161.508 55.6954 164.114C55.8134 164.735 55.7624 165.376 55.5478 165.97L55.396 166.39C54.7318 168.23 52.737 169.22 50.8703 168.637C48.0713 167.762 47.3913 164.113 49.6876 162.289Z" stroke="#00C48E" stroke-width="3" stroke-linecap="square"/>
<path d="M73.3496 175.021L72.3645 173.439C70.2476 170.041 72.7833 165.658 76.7842 165.798L83.1542 166.023C85.0169 166.088 86.6885 167.185 87.491 168.867L88.2414 170.44C89.8575 173.828 87.3038 177.722 83.5527 177.59L77.4174 177.374C75.7544 177.315 74.2295 176.433 73.3496 175.021Z" stroke="#00C48E" stroke-width="3" stroke-linecap="square"/>
<path d="M57.8084 173.194L59.7858 169.93C60.1616 169.31 61.0521 169.284 61.464 169.881L65.2808 175.411C65.8411 176.223 65.012 177.27 64.0934 176.91L58.2992 174.643C57.7212 174.417 57.4867 173.724 57.8084 173.194Z" fill="#00C48E" stroke="#00C48E" stroke-width="3" stroke-linecap="square"/>
<path d="M64.609 29.1065L66.2437 31.2262C66.6162 31.7093 67.3341 31.7434 67.7583 31.2982L70.1596 28.778C70.8006 28.1052 70.2694 27.0043 69.348 27.0958L65.312 27.4963C64.5278 27.5741 64.13 28.4854 64.609 29.1065Z" fill="#00C48E" stroke="#00C48E" stroke-width="3" stroke-linecap="square"/>
<path d="M101.814 36.5165C99.5878 39.6358 97.6356 43.2158 95.9523 47.1501C92.8497 54.4016 89.045 80.3107 87.7327 89.3036M140.507 34.6271C142.771 36.9511 144.207 38.7685 145.809 41.2711C149.055 46.3425 151.509 51.898 153.038 57.7222C157.021 72.8912 158.89 90.8098 157.049 95.7471" stroke="#00C48E" stroke-width="15" stroke-linecap="round"/>
</g>
<path d="M94.4884 36.2035C92.27 39.43 90.3239 43.1322 88.6447 47.2002C75.575 78.8616 78.6674 132.681 95.2933 156.838C102.724 167.634 118.48 168.311 127.356 158.667C147.841 136.411 158.292 83.0021 142.787 49.1069C140.238 43.5348 136.988 38.49 132.965 34.1977" stroke="#00C48E" stroke-width="15" stroke-linecap="round"/>
<path d="M139.338 60.3355L131.96 128.603C131.904 129.124 131.454 129.513 130.93 129.495L127.64 129.379C127.166 129.362 126.768 129.014 126.689 128.546L121.4 97.1916C121.321 96.7234 120.924 96.3753 120.449 96.3586L114.711 96.1565C114.16 96.1371 113.696 96.5687 113.677 97.1207L112.083 142.394C112.063 142.946 111.6 143.378 111.048 143.358L105.285 143.155C104.822 143.139 104.431 142.806 104.34 142.352L87.5903 58.5132" stroke="#00C48E" stroke-width="15" stroke-linecap="square"/>
<path d="M140.543 50.4395L127.646 131.203C127.564 131.717 127.101 132.082 126.581 132.042L121.652 131.661C121.163 131.624 120.773 131.236 120.733 130.747L117.964 97.4104C117.923 96.9213 117.534 96.5339 117.044 96.4961L110.269 95.9731C109.707 95.9297 109.22 96.3592 109.193 96.9223L107.003 142.692C106.976 143.255 106.489 143.685 105.927 143.641L97.4512 142.987C96.9736 142.95 96.5893 142.58 96.5347 142.104L87.3988 62.4859" stroke="#00C48E" stroke-width="15" stroke-linecap="square"/>
<g filter="url(#filter1_d_399_72)">
<path d="M143.122 56.2679L133.418 125.051L128.943 124.893L122.703 95.3177L115.71 95.0715L113.054 138.668L105.782 138.412L89.3712 63.6171" stroke="white" stroke-width="5" stroke-linecap="square"/>
</g>
<g filter="url(#filter2_d_399_72)">
<path d="M141.404 57.3276L133.398 125.61L128.923 125.453L122.972 95.6073L115.7 95.3511L113.034 139.227L105.762 138.971L88.9199 60.5205" stroke="white" stroke-width="5" stroke-linecap="square"/>
</g>
<path d="M49.6739 94.4307L60.383 92.623C63.3052 92.1297 66.0128 94.272 66.2047 97.2294L66.8435 107.072C67.0452 110.181 64.3851 112.715 61.2894 112.363L50.3825 111.124C47.978 110.851 46.1143 108.895 45.9576 106.48L45.5166 99.6848C45.3506 97.1267 47.1461 94.8574 49.6739 94.4307Z" fill="#00C48E"/>
<path d="M37.9959 107.649L37.4524 99.2748C37.3138 97.1382 35.8301 95.327 33.7625 94.7705L26.3226 92.7679C23.0149 91.8775 19.8116 94.5016 20.0335 97.9198L20.9055 111.357C21.1292 114.804 24.698 116.991 27.8712 115.626L34.9826 112.566C36.9262 111.73 38.1329 109.761 37.9959 107.649Z" fill="#00C48E"/>
<path d="M46.7841 79.2353L47.2017 72.1266C47.3497 69.6077 49.3513 67.5938 51.8693 67.4303L62.4902 66.7411C65.5188 66.5445 68.0227 69.0696 67.8006 72.0964L67.4204 77.2782C67.2619 79.4389 65.7298 81.2518 63.6257 81.7682L52.9674 84.3844C49.6986 85.1867 46.5867 82.5954 46.7841 79.2353Z" fill="#00C48E"/>
<path d="M37.3174 71.436L36.9496 79.5907C36.7944 83.032 33.2874 85.2891 30.0909 84.0051L23.1486 81.2163C20.718 80.2399 19.4529 77.5531 20.2487 75.0575L22.8135 67.0148C23.7768 63.9941 27.2722 62.6212 30.0337 64.179L31.0683 64.7626L34.7791 66.8557C36.421 67.7819 37.4024 69.5528 37.3174 71.436Z" fill="#00C48E"/>
<path d="M55.1898 121.159L66.0804 121.966C68.3048 122.13 70.151 123.749 70.606 125.932L71.5814 130.614C72.2016 133.59 70.0441 136.426 67.0104 136.623L56.3705 137.314C53.8671 137.476 51.6308 135.758 51.1424 133.298L49.9161 127.119C49.2728 123.877 51.8945 120.915 55.1898 121.159Z" fill="#00C48E"/>
<path d="M42.2366 133.495L40.3429 126.614C39.5599 123.769 36.4962 122.217 33.7393 123.269L26.9029 125.878C24.2231 126.901 22.9513 129.964 24.1183 132.584L27.6904 140.604C28.9841 143.509 32.6247 144.484 35.197 142.615L40.355 138.867C42.0396 137.643 42.7892 135.503 42.2366 133.495Z" fill="#00C48E"/>
<path d="M42.3024 54.4408L42.2492 55.8867C42.1118 59.6215 38.0748 61.8909 34.8127 60.0671L30.8917 57.8751C28.8291 56.722 27.8554 54.2824 28.5571 52.026L29.0708 50.3741C30.0735 47.1499 33.9179 45.826 36.6932 47.7493L40.1537 50.1474C41.5551 51.1185 42.365 52.7369 42.3024 54.4408Z" fill="#00C48E"/>
<path d="M51.1266 53.3561L52.0077 51.5068C52.787 49.8714 54.3899 48.7854 56.1977 48.6681L66.5391 47.997C69.2948 47.8182 71.6736 49.9071 71.8524 52.6627L71.9061 53.4895C72.0744 56.0823 70.2287 58.372 67.6592 58.7579L56.3829 60.4514C52.4209 61.0464 49.4032 56.9729 51.1266 53.3561Z" fill="#00C48E"/>
<path d="M78.9745 38.6741L79.948 37.1146C82.1047 33.6596 79.447 29.2137 75.3827 29.4774L66.292 30.0674C64.7603 30.1668 63.3591 30.9642 62.4914 32.2304L61.4182 33.7964C59.0602 37.2373 61.704 41.8825 65.8665 41.6123L75.0569 41.0159C76.6637 40.9116 78.1219 40.04 78.9745 38.6741Z" fill="#00C48E"/>
<path d="M39.9834 41.6252L41.4756 42.7566C44.302 44.8995 48.3852 43.1365 48.7638 39.61C48.9166 38.1866 48.3921 36.7741 47.3473 35.7955L45.9805 34.5153C44.2138 32.8605 41.474 32.8351 39.6769 34.4568C37.5085 36.4136 37.6558 39.8606 39.9834 41.6252Z" fill="#00C48E"/>
<path d="M36.6505 150.006L40.3489 147.024C43.3216 144.627 47.7755 146.313 48.4164 150.077L48.5858 151.072C48.8554 152.656 48.3477 154.272 47.2212 155.418L43.9629 158.73C41.5092 161.224 37.3181 160.492 35.856 157.313L35.2465 155.988C34.2896 153.908 34.8681 151.443 36.6505 150.006Z" fill="#00C48E"/>
<path d="M61.5657 156.06L60.6566 154.623C58.6281 151.415 60.7716 147.206 64.5585 146.96L72.9263 146.417C75.6819 146.239 78.0608 148.328 78.2396 151.083L78.3363 152.573C78.5151 155.329 76.4262 157.708 73.6706 157.887L66.1152 158.377C64.289 158.495 62.5439 157.607 61.5657 156.06Z" fill="#00C48E"/>
<path d="M48.9667 162.791L49.2636 162.51C51.1464 160.73 54.2443 161.553 54.9951 164.033C55.181 164.648 55.1938 165.301 55.0321 165.922L54.9291 166.318C54.4483 168.163 52.6124 169.315 50.7414 168.944C47.8708 168.375 46.8402 164.802 48.9667 162.791Z" fill="#00C48E"/>
<path d="M73.6382 172.872L72.7121 171.703C70.2068 168.543 72.282 163.869 76.3066 163.608L82.557 163.202C84.3962 163.083 86.1519 163.985 87.1258 165.55L87.8607 166.731C89.8575 169.939 87.7105 174.117 83.9395 174.362L77.8803 174.755C76.2428 174.862 74.6575 174.158 73.6382 172.872Z" fill="#00C48E"/>
<path d="M49.6739 94.4307L60.383 92.623C63.3052 92.1297 66.0128 94.272 66.2047 97.2294L66.8435 107.072C67.0452 110.181 64.3851 112.715 61.2894 112.363L50.3825 111.124C47.978 110.851 46.1143 108.895 45.9576 106.48L45.5166 99.6848C45.3506 97.1267 47.1461 94.8574 49.6739 94.4307Z" stroke="#00C48E" stroke-width="3" stroke-linecap="square"/>
<path d="M37.9959 107.649L37.4524 99.2748C37.3138 97.1382 35.8301 95.327 33.7625 94.7705L26.3226 92.7679C23.0149 91.8775 19.8116 94.5016 20.0335 97.9198L20.9055 111.357C21.1292 114.804 24.698 116.991 27.8712 115.626L34.9826 112.566C36.9262 111.73 38.1329 109.761 37.9959 107.649Z" stroke="#00C48E" stroke-width="3" stroke-linecap="square"/>
<path d="M46.7841 79.2353L47.2017 72.1266C47.3497 69.6077 49.3513 67.5938 51.8693 67.4303L62.4902 66.7411C65.5188 66.5445 68.0227 69.0696 67.8006 72.0964L67.4204 77.2782C67.2619 79.4389 65.7298 81.2518 63.6257 81.7682L52.9674 84.3844C49.6986 85.1867 46.5867 82.5954 46.7841 79.2353Z" stroke="#00C48E" stroke-width="3" stroke-linecap="square"/>
<path d="M37.3174 71.436L36.9496 79.5907C36.7944 83.032 33.2874 85.2891 30.0909 84.0051L23.1486 81.2163C20.718 80.2399 19.4529 77.5531 20.2487 75.0575L22.8135 67.0148C23.7768 63.9941 27.2722 62.6212 30.0337 64.179L31.0683 64.7626L34.7791 66.8557C36.421 67.7819 37.4024 69.5528 37.3174 71.436Z" stroke="#00C48E" stroke-width="3" stroke-linecap="square"/>
<path d="M55.1898 121.159L66.0804 121.966C68.3048 122.13 70.151 123.749 70.606 125.932L71.5814 130.614C72.2016 133.59 70.0441 136.426 67.0104 136.623L56.3705 137.314C53.8671 137.476 51.6308 135.758 51.1424 133.298L49.9161 127.119C49.2728 123.877 51.8945 120.915 55.1898 121.159Z" stroke="#00C48E" stroke-width="3" stroke-linecap="square"/>
<path d="M42.2366 133.495L40.3429 126.614C39.5599 123.769 36.4962 122.217 33.7393 123.269L26.9029 125.878C24.2231 126.901 22.9513 129.964 24.1183 132.584L27.6904 140.604C28.9841 143.509 32.6247 144.484 35.197 142.615L40.355 138.867C42.0396 137.643 42.7892 135.503 42.2366 133.495Z" stroke="#00C48E" stroke-width="3" stroke-linecap="square"/>
<path d="M42.3024 54.4408L42.2492 55.8867C42.1118 59.6215 38.0748 61.8909 34.8127 60.0671L30.8917 57.8751C28.8291 56.722 27.8554 54.2824 28.5571 52.026L29.0708 50.3741C30.0735 47.1499 33.9179 45.826 36.6932 47.7493L40.1537 50.1474C41.5551 51.1185 42.365 52.7369 42.3024 54.4408Z" stroke="#00C48E" stroke-width="3" stroke-linecap="square"/>
<path d="M51.1266 53.3561L52.0077 51.5068C52.787 49.8714 54.3899 48.7854 56.1977 48.6681L66.5391 47.997C69.2948 47.8182 71.6736 49.9071 71.8524 52.6627L71.9061 53.4895C72.0744 56.0823 70.2287 58.372 67.6592 58.7579L56.3829 60.4514C52.4209 61.0464 49.4032 56.9729 51.1266 53.3561Z" stroke="#00C48E" stroke-width="3" stroke-linecap="square"/>
<path d="M78.9745 38.6741L79.948 37.1146C82.1047 33.6596 79.447 29.2137 75.3827 29.4774L66.292 30.0674C64.7603 30.1668 63.3591 30.9642 62.4914 32.2304L61.4182 33.7964C59.0602 37.2373 61.704 41.8825 65.8665 41.6123L75.0569 41.0159C76.6637 40.9116 78.1219 40.04 78.9745 38.6741Z" stroke="#00C48E" stroke-width="3" stroke-linecap="square"/>
<path d="M39.9834 41.6252L41.4756 42.7566C44.302 44.8995 48.3852 43.1365 48.7638 39.61C48.9166 38.1866 48.3921 36.7741 47.3473 35.7955L45.9805 34.5153C44.2138 32.8605 41.474 32.8351 39.6769 34.4568C37.5085 36.4136 37.6558 39.8606 39.9834 41.6252Z" stroke="#00C48E" stroke-width="3" stroke-linecap="square"/>
<path d="M36.6505 150.006L40.3489 147.024C43.3216 144.627 47.7755 146.313 48.4164 150.077L48.5858 151.072C48.8554 152.656 48.3477 154.272 47.2212 155.418L43.9629 158.73C41.5092 161.224 37.3181 160.492 35.856 157.313L35.2465 155.988C34.2896 153.908 34.8681 151.443 36.6505 150.006Z" stroke="#00C48E" stroke-width="3" stroke-linecap="square"/>
<path d="M61.5657 156.06L60.6566 154.623C58.6281 151.415 60.7716 147.206 64.5585 146.96L72.9263 146.417C75.6819 146.239 78.0608 148.328 78.2396 151.083L78.3363 152.573C78.5151 155.329 76.4262 157.708 73.6706 157.887L66.1152 158.377C64.289 158.495 62.5439 157.607 61.5657 156.06Z" stroke="#00C48E" stroke-width="3" stroke-linecap="square"/>
<path d="M48.9667 162.791L49.2636 162.51C51.1464 160.73 54.2443 161.553 54.9951 164.033C55.181 164.648 55.1938 165.301 55.0321 165.922L54.9291 166.318C54.4483 168.163 52.6124 169.315 50.7414 168.944C47.8708 168.375 46.8402 164.802 48.9667 162.791Z" stroke="#00C48E" stroke-width="3" stroke-linecap="square"/>
<path d="M73.6382 172.872L72.7121 171.703C70.2068 168.543 72.282 163.869 76.3066 163.608L82.557 163.202C84.3962 163.083 86.1519 163.985 87.1258 165.55L87.8607 166.731C89.8575 169.939 87.7105 174.117 83.9395 174.362L77.8803 174.755C76.2428 174.862 74.6575 174.158 73.6382 172.872Z" stroke="#00C48E" stroke-width="3" stroke-linecap="square"/>
<path d="M58.01 172.581L59.6449 169.213C59.9588 168.566 60.832 168.452 61.3016 168.996L65.6184 173.998C66.2638 174.746 65.5494 175.877 64.5967 175.616L58.645 173.982C58.0417 173.817 57.7368 173.144 58.01 172.581Z" fill="#00C48E" stroke="#00C48E" stroke-width="3" stroke-linecap="square"/>
<path d="M50.5569 30.9333L52.3706 32.8224C52.789 33.2582 53.4974 33.2217 53.8746 32.745L55.9892 30.0728C56.5674 29.3421 55.9298 28.2912 55.0185 28.4728L51.0902 29.2559C50.3134 29.4107 50.0104 30.3641 50.5569 30.9333Z" fill="#00C48E" stroke="#00C48E" stroke-width="3" stroke-linecap="square"/>
<path d="M94.8189 36.2702C92.5922 39.3895 90.64 42.9695 88.9567 46.9038C85.8541 54.1553 82.0494 80.0644 80.7371 89.0573M133.512 34.3808C135.775 36.7047 137.211 38.5222 138.813 41.0248C142.06 46.0961 144.514 51.6517 146.043 57.4758C150.025 72.6449 151.895 90.5634 150.053 95.5008" stroke="#00C48E" stroke-width="15" stroke-linecap="round"/>
<defs>
<filter id="filter0_f_399_72" x="0.574219" y="0.5896" width="189.687" height="203.503" filterUnits="userSpaceOnUse" color-interpolation-filters="sRGB">
<feFlood flood-opacity="0" result="BackgroundImageFix"/>
<feBlend mode="normal" in="SourceGraphic" in2="BackgroundImageFix" result="shape"/>
<feGaussianBlur stdDeviation="12.5" result="effect1_foregroundBlur_399_72"/>
</filter>
<filter id="filter1_d_399_72" x="82.3936" y="53.4431" width="67.5532" height="95.8088" filterUnits="userSpaceOnUse" color-interpolation-filters="sRGB">
<feFlood flood-opacity="0" result="BackgroundImageFix"/>
<feColorMatrix in="SourceAlpha" type="matrix" values="0 0 0 0 0 0 0 0 0 0 0 0 0 0 0 0 0 0 127 0" result="hardAlpha"/>
<feOffset dy="4"/>
<feGaussianBlur stdDeviation="2"/>
<feComposite in2="hardAlpha" operator="out"/>
<feColorMatrix type="matrix" values="0 0 0 0 1 0 0 0 0 1 0 0 0 0 1 0 0 0 1 0"/>
<feBlend mode="normal" in2="BackgroundImageFix" result="effect1_dropShadow_399_72"/>
<feBlend mode="normal" in="SourceGraphic" in2="effect1_dropShadow_399_72" result="shape"/>
</filter>
<filter id="filter2_d_399_72" x="81.9507" y="46.5535" width="66.2275" height="95.2578" filterUnits="userSpaceOnUse" color-interpolation-filters="sRGB">
<feFlood flood-opacity="0" result="BackgroundImageFix"/>
<feColorMatrix in="SourceAlpha" type="matrix" values="0 0 0 0 0 0 0 0 0 0 0 0 0 0 0 0 0 0 127 0" result="hardAlpha"/>
<feOffset dy="-4"/>
<feGaussianBlur stdDeviation="2"/>
<feComposite in2="hardAlpha" operator="out"/>
<feColorMatrix type="matrix" values="0 0 0 0 1 0 0 0 0 1 0 0 0 0 1 0 0 0 1 0"/>
<feBlend mode="normal" in2="BackgroundImageFix" result="effect1_dropShadow_399_72"/>
<feBlend mode="normal" in="SourceGraphic" in2="effect1_dropShadow_399_72" result="shape"/>
</filter>
</defs>
</svg>
