<svg width="300" height="224" viewBox="0 0 300 224" fill="none" xmlns="http://www.w3.org/2000/svg">
<g filter="url(#filter0_f_399_72)">
<path d="M101.484 55.4503C99.2651 58.6768 97.3191 62.379 95.6398 66.447C82.5702 98.1085 85.6625 151.928 102.288 176.085C109.719 186.881 125.475 187.558 134.351 177.914C154.836 155.658 165.287 102.249 149.782 68.3537C147.233 62.7816 143.983 57.7369 139.961 53.4446" stroke="#00C48E" stroke-width="15" stroke-linecap="round"/>
<path d="M77.8252 186.239C115.856 181.548 168.923 170.784 184.967 159.931C191.997 156.105 208.714 150.329 219.346 157.83C216.518 151.248 207.834 138.847 195.718 141.903C201.019 137.259 202.983 134.62 213.684 139.523C225.002 144.709 244.118 132.177 249.276 125.397C221.736 135.701 223.006 114.104 205.484 118.785C214.338 112 226.089 116.858 239.683 117.436C253.356 118.018 273.402 98.3255 274.665 83.8865C268.068 91.4017 251.825 103.691 237.327 97.4392C221.655 90.6812 202.387 80.043 186.156 87.9572C191.901 82.8444 206.28 73.5308 217.835 77.179C229.391 80.8272 238.919 85.2976 242.238 87.0768C240.143 80.8311 231.286 70.572 216.73 65.0563C200.115 58.7606 169.5 63.3584 161.153 78.4272C157.529 74.9755 157.675 71.69 171.01 62.0157C161.482 62.6955 151.648 52.5361 147.473 62.2619C147.315 56.4128 144.038 48.6705 133.515 44.0633C125.032 40.8299 112.65 45.1638 102.92 57.5334L81.4182 84.8696L67.6838 135.048L77.8252 186.239Z" fill="url(#paint0_linear_399_72)"/>
<path d="M146.333 79.5823L138.955 147.85C138.899 148.371 138.449 148.76 137.926 148.742L134.635 148.626C134.161 148.609 133.763 148.261 133.685 147.793L128.395 116.438C128.316 115.97 127.919 115.622 127.444 115.605L121.707 115.403C121.155 115.384 120.691 115.816 120.672 116.368L119.078 161.641C119.058 162.193 118.595 162.624 118.043 162.605L112.281 162.402C111.817 162.386 111.426 162.053 111.335 161.599L94.5854 77.76" stroke="#00C48E" stroke-width="15" stroke-linecap="square"/>
<path d="M145.603 68.4865L136.096 149.718C136.036 150.236 135.588 150.62 135.068 150.602L130.127 150.428C129.636 150.41 129.231 150.04 129.17 149.553L125.009 116.361C124.948 115.874 124.542 115.503 124.052 115.486L117.261 115.247C116.697 115.227 116.229 115.676 116.226 116.24L115.952 162.061C115.949 162.625 115.48 163.075 114.917 163.055L106.421 162.756C105.942 162.739 105.543 162.385 105.468 161.912L93.0095 82.7456" stroke="#00C48E" stroke-width="15" stroke-linecap="square"/>
<path d="M57.3971 111.3L68.2343 110.539C71.1964 110.331 73.686 112.735 73.5815 115.703L73.2146 126.122C73.1045 129.246 70.1873 131.504 67.1356 130.828L56.409 128.45C54.0554 127.928 52.4092 125.802 52.4941 123.392L52.7505 116.112C52.8405 113.556 54.8454 111.48 57.3971 111.3Z" fill="#00C48E"/>
<path d="M44.455 123.774L44.7682 114.88C44.843 112.756 43.567 110.817 41.5868 110.045L34.3864 107.239C31.1778 105.988 27.6952 108.28 27.574 111.722L27.0772 125.83C26.9549 129.302 30.3223 131.837 33.6245 130.76L41.0085 128.351C43.0044 127.7 44.3811 125.872 44.455 123.774Z" fill="#00C48E"/>
<path d="M56.0409 95.6316L57.2178 88.1142C57.6091 85.6149 59.8055 83.8016 62.3336 83.8907L72.9771 84.2655C76.0026 84.372 78.24 87.1217 77.7295 90.1057L76.7801 95.6542C76.415 97.7877 74.7186 99.444 72.5771 99.758L61.7062 101.352C58.3728 101.841 55.5198 98.96 56.0409 95.6316Z" fill="#00C48E"/>
<path d="M47.4564 86.3701L46.2351 94.9095C45.7431 98.349 41.9797 100.251 38.919 98.6061L32.2477 95.0218C29.9749 93.8007 29.0045 91.0507 30.0075 88.6736L33.4555 80.5015C34.7058 77.5381 38.3884 76.5089 40.9939 78.3948L41.8919 79.0448L45.4385 81.6118C46.9423 82.7003 47.7193 84.5324 47.4564 86.3701Z" fill="#00C48E"/>
<path d="M60.2027 139.214L70.9606 141.148C73.1558 141.542 74.8242 143.343 75.0503 145.562L75.578 150.739C75.8855 153.756 73.4584 156.35 70.4278 156.243L59.7658 155.868C57.2518 155.779 55.195 153.837 54.9631 151.332L54.3394 144.596C54.0347 141.305 56.9498 138.629 60.2027 139.214Z" fill="#00C48E"/>
<path d="M46.0989 150.681L44.8701 143.213C44.3867 140.275 41.4582 138.408 38.5903 139.209L31.4857 141.195C28.7557 141.959 27.2055 144.836 28.0702 147.536L30.8879 156.333C31.8715 159.404 35.4614 160.754 38.2251 159.093L43.7407 155.779C45.4969 154.723 46.4315 152.703 46.0989 150.681Z" fill="#00C48E"/>
<path d="M54.1273 69.4943L53.8999 71.1819C53.396 74.9198 49.0926 76.7753 46.0287 74.5756L42.3087 71.9049C40.4229 70.551 39.717 68.0772 40.6044 65.932L41.3564 64.1141C42.6655 60.9493 46.6972 60.0077 49.2726 62.2654L52.4681 65.0665C53.7282 66.1711 54.3512 67.8336 54.1273 69.4943Z" fill="#00C48E"/>
<path d="M62.8406 69.6792L64.0741 67.5874C65.0051 66.0086 66.7253 65.0657 68.557 65.1302L78.8738 65.4935C81.6335 65.5907 83.7919 67.9067 83.6948 70.6664L83.6548 71.8022C83.5635 74.3943 81.5053 76.4862 78.915 76.6196L67.4047 77.2124C63.425 77.4173 60.8164 73.1118 62.8406 69.6792Z" fill="#00C48E"/>
<path d="M92.1825 57.222L93.5172 55.4473C95.9469 52.2164 93.7371 47.5875 89.697 47.4452L80.4781 47.1205C78.9202 47.0657 77.4259 47.7406 76.437 48.9456L74.9841 50.7161C72.3579 53.9163 74.536 58.7392 78.6732 58.8849L88.0105 59.2137C89.643 59.2712 91.2007 58.5276 92.1825 57.222Z" fill="#00C48E"/>
<path d="M52.9904 56.1724L54.317 57.44C56.9488 59.9545 61.3193 58.5885 62.0506 55.0228C62.3366 53.6286 61.9654 52.1804 61.0441 51.0956L59.8563 49.697C58.2338 47.7866 55.4018 47.4754 53.4031 48.988C51.0822 50.7446 50.8859 54.1616 52.9904 56.1724Z" fill="#00C48E"/>
<path d="M38.7443 166.922L42.765 164.22C45.9639 162.069 50.2904 164.194 50.5437 168.04L50.6254 169.281C50.729 170.854 50.0844 172.384 48.8862 173.409L45.3148 176.464C42.6181 178.77 38.4438 177.612 37.3215 174.246L36.7906 172.653C36.0797 170.521 36.879 168.176 38.7443 166.922Z" fill="#00C48E"/>
<path d="M63.0396 175.604L62.1391 173.75C60.4921 170.36 63.0457 166.436 66.8125 166.568L75.3038 166.867C78.0636 166.965 80.222 169.281 80.1248 172.04L80.0607 173.86C79.9635 176.62 77.6475 178.778 74.8878 178.681L67.3609 178.416C65.511 178.351 63.8484 177.269 63.0396 175.604Z" fill="#00C48E"/>
<path d="M49.6871 181.289L50.0371 181.011C52.1139 179.362 55.1997 180.509 55.6949 183.114C55.8129 183.735 55.7619 184.376 55.5473 184.971L55.3955 185.391C54.7313 187.23 52.7365 188.22 50.8699 187.637C48.0708 186.763 47.3908 183.113 49.6871 181.289Z" fill="#00C48E"/>
<path d="M73.3491 194.021L72.364 192.44C70.2471 189.042 72.7829 184.658 76.7837 184.799L83.1537 185.023C85.0164 185.089 86.688 186.185 87.4905 187.867L88.2409 189.44C89.857 192.828 87.3033 196.722 83.5522 196.59L77.417 196.374C75.7539 196.316 74.229 195.433 73.3491 194.021Z" fill="#00C48E"/>
<path d="M57.3971 111.3L68.2343 110.539C71.1964 110.331 73.686 112.735 73.5815 115.703L73.2146 126.122C73.1045 129.246 70.1873 131.504 67.1356 130.828L56.409 128.45C54.0554 127.928 52.4092 125.802 52.4941 123.392L52.7505 116.112C52.8405 113.556 54.8454 111.48 57.3971 111.3Z" stroke="#00C48E" stroke-width="3" stroke-linecap="square"/>
<path d="M44.455 123.774L44.7682 114.88C44.843 112.756 43.567 110.817 41.5868 110.045L34.3864 107.239C31.1778 105.988 27.6952 108.28 27.574 111.722L27.0772 125.83C26.9549 129.302 30.3223 131.837 33.6245 130.76L41.0085 128.351C43.0044 127.7 44.3811 125.872 44.455 123.774Z" stroke="#00C48E" stroke-width="3" stroke-linecap="square"/>
<path d="M56.0409 95.6316L57.2178 88.1142C57.6091 85.6149 59.8055 83.8016 62.3336 83.8907L72.9771 84.2655C76.0026 84.372 78.24 87.1217 77.7295 90.1057L76.7801 95.6542C76.415 97.7877 74.7186 99.444 72.5771 99.758L61.7062 101.352C58.3728 101.841 55.5198 98.96 56.0409 95.6316Z" stroke="#00C48E" stroke-width="3" stroke-linecap="square"/>
<path d="M47.4564 86.3701L46.2351 94.9095C45.7431 98.349 41.9797 100.251 38.919 98.6061L32.2477 95.0218C29.9749 93.8007 29.0045 91.0507 30.0075 88.6736L33.4555 80.5015C34.7058 77.5381 38.3884 76.5089 40.9939 78.3948L41.8919 79.0448L45.4385 81.6118C46.9423 82.7003 47.7193 84.5324 47.4564 86.3701Z" stroke="#00C48E" stroke-width="3" stroke-linecap="square"/>
<path d="M60.2027 139.214L70.9606 141.148C73.1558 141.542 74.8242 143.343 75.0503 145.562L75.578 150.739C75.8855 153.756 73.4584 156.35 70.4278 156.243L59.7658 155.868C57.2518 155.779 55.195 153.837 54.9631 151.332L54.3394 144.596C54.0347 141.305 56.9498 138.629 60.2027 139.214Z" stroke="#00C48E" stroke-width="3" stroke-linecap="square"/>
<path d="M46.0989 150.681L44.8701 143.213C44.3867 140.275 41.4582 138.408 38.5903 139.209L31.4857 141.195C28.7557 141.959 27.2055 144.836 28.0702 147.536L30.8879 156.333C31.8715 159.404 35.4614 160.754 38.2251 159.093L43.7407 155.779C45.4969 154.723 46.4315 152.703 46.0989 150.681Z" stroke="#00C48E" stroke-width="3" stroke-linecap="square"/>
<path d="M54.1273 69.4943L53.8999 71.1819C53.396 74.9198 49.0926 76.7753 46.0287 74.5756L42.3087 71.9049C40.4229 70.551 39.717 68.0772 40.6044 65.932L41.3564 64.1141C42.6655 60.9493 46.6972 60.0077 49.2726 62.2654L52.4681 65.0665C53.7282 66.1711 54.3512 67.8336 54.1273 69.4943Z" stroke="#00C48E" stroke-width="3" stroke-linecap="square"/>
<path d="M62.8406 69.6792L64.0741 67.5874C65.0051 66.0086 66.7253 65.0657 68.557 65.1302L78.8738 65.4935C81.6335 65.5907 83.7919 67.9067 83.6948 70.6664L83.6548 71.8022C83.5635 74.3943 81.5053 76.4862 78.915 76.6196L67.4047 77.2124C63.425 77.4173 60.8164 73.1118 62.8406 69.6792Z" stroke="#00C48E" stroke-width="3" stroke-linecap="square"/>
<path d="M92.1825 57.222L93.5172 55.4473C95.9469 52.2164 93.7371 47.5875 89.697 47.4452L80.4781 47.1205C78.9202 47.0657 77.4259 47.7406 76.437 48.9456L74.9841 50.7161C72.3579 53.9163 74.536 58.7392 78.6732 58.8849L88.0105 59.2137C89.643 59.2712 91.2007 58.5276 92.1825 57.222Z" stroke="#00C48E" stroke-width="3" stroke-linecap="square"/>
<path d="M52.9904 56.1724L54.317 57.44C56.9488 59.9545 61.3193 58.5885 62.0506 55.0228C62.3366 53.6286 61.9654 52.1804 61.0441 51.0956L59.8563 49.697C58.2338 47.7866 55.4018 47.4754 53.4031 48.988C51.0822 50.7446 50.8859 54.1616 52.9904 56.1724Z" stroke="#00C48E" stroke-width="3" stroke-linecap="square"/>
<path d="M38.7443 166.922L42.765 164.22C45.9639 162.069 50.2904 164.194 50.5437 168.04L50.6254 169.281C50.729 170.854 50.0844 172.384 48.8862 173.409L45.3148 176.464C42.6181 178.77 38.4438 177.612 37.3215 174.246L36.7906 172.653C36.0797 170.521 36.879 168.176 38.7443 166.922Z" stroke="#00C48E" stroke-width="3" stroke-linecap="square"/>
<path d="M63.0396 175.604L62.1391 173.75C60.4921 170.36 63.0457 166.436 66.8125 166.568L75.3038 166.867C78.0636 166.965 80.222 169.281 80.1248 172.04L80.0607 173.86C79.9635 176.62 77.6475 178.778 74.8878 178.681L67.3609 178.416C65.511 178.351 63.8484 177.269 63.0396 175.604Z" stroke="#00C48E" stroke-width="3" stroke-linecap="square"/>
<path d="M49.6871 181.289L50.0371 181.011C52.1139 179.362 55.1997 180.509 55.6949 183.114C55.8129 183.735 55.7619 184.376 55.5473 184.971L55.3955 185.391C54.7313 187.23 52.7365 188.22 50.8699 187.637C48.0708 186.763 47.3908 183.113 49.6871 181.289Z" stroke="#00C48E" stroke-width="3" stroke-linecap="square"/>
<path d="M73.3491 194.021L72.364 192.44C70.2471 189.042 72.7829 184.658 76.7837 184.799L83.1537 185.023C85.0164 185.089 86.688 186.185 87.4905 187.867L88.2409 189.44C89.857 192.828 87.3033 196.722 83.5522 196.59L77.417 196.374C75.7539 196.316 74.229 195.433 73.3491 194.021Z" stroke="#00C48E" stroke-width="3" stroke-linecap="square"/>
<path d="M57.8079 192.194L59.7853 188.931C60.1612 188.311 61.0516 188.284 61.4635 188.881L65.2803 194.411C65.8406 195.223 65.0115 196.27 64.0929 195.911L58.2987 193.644C57.7207 193.417 57.4862 192.725 57.8079 192.194Z" fill="#00C48E" stroke="#00C48E" stroke-width="3" stroke-linecap="square"/>
<path d="M64.6085 48.107L66.2432 50.2267C66.6157 50.7098 67.3336 50.7439 67.7578 50.2987L70.1591 47.7784C70.8001 47.1057 70.2689 46.0048 69.3475 46.0963L65.3115 46.4968C64.5273 46.5746 64.1295 47.4859 64.6085 48.107Z" fill="#00C48E" stroke="#00C48E" stroke-width="3" stroke-linecap="square"/>
<path d="M101.814 55.517C99.5873 58.6363 97.6351 62.2163 95.9518 66.1506C92.8492 73.4021 89.0445 99.3112 87.7322 108.304M140.507 53.6276C142.77 55.9515 144.206 57.769 145.808 60.2716C149.055 65.343 151.509 70.8985 153.038 76.7226C157.02 91.8917 158.89 109.81 157.048 114.748" stroke="#00C48E" stroke-width="15" stroke-linecap="round"/>
</g>
<path d="M94.4879 55.204C92.2695 58.4305 90.3235 62.1327 88.6442 66.2007C75.5745 97.8621 78.6669 151.682 95.2928 175.838C102.724 186.635 118.479 187.311 127.356 177.668C147.84 155.411 158.292 102.003 142.787 68.1074C140.238 62.5353 136.988 57.4905 132.965 53.1982" stroke="#00C48E" stroke-width="15" stroke-linecap="round"/>
<path d="M70.8354 187.224C108.937 183.147 162.17 173.24 178.387 162.647C185.478 158.935 202.286 153.428 212.796 161.1C210.075 154.473 201.592 141.934 189.428 144.794C194.803 140.236 196.809 137.63 207.43 142.704C218.663 148.072 237.979 135.85 243.245 129.154C215.542 139.013 217.161 117.439 199.565 121.837C208.527 115.195 220.198 120.243 233.781 121.04C247.443 121.841 267.805 102.475 269.3 88.0582C262.583 95.4661 246.144 107.492 231.748 101.007C216.188 93.9973 197.094 83.0498 180.736 90.7013C186.563 85.6818 201.09 76.6013 212.586 80.4353C224.081 84.2693 233.536 88.8928 236.826 90.7252C234.832 84.4466 226.141 74.046 211.676 68.2963C195.165 61.7336 164.48 65.8371 155.891 80.7694C152.323 77.2596 152.522 73.9769 166.011 64.519C156.473 65.045 146.805 54.7283 142.473 64.3855C142.41 58.5347 139.258 50.7406 128.81 45.9643C120.38 42.5945 107.931 46.7282 98.0027 58.9393L76.0625 85.9252L61.5208 135.876L70.8354 187.224Z" fill="url(#paint1_linear_399_72)"/>
<path d="M139.337 79.336L131.959 147.604C131.903 148.125 131.454 148.514 130.93 148.495L127.64 148.38C127.165 148.363 126.768 148.015 126.689 147.547L121.4 116.192C121.321 115.724 120.923 115.376 120.449 115.359L114.711 115.157C114.159 115.138 113.696 115.569 113.676 116.121L112.082 161.394C112.063 161.946 111.599 162.378 111.047 162.359L105.285 162.156C104.822 162.139 104.43 161.807 104.34 161.352L87.5898 77.5137" stroke="#00C48E" stroke-width="15" stroke-linecap="square"/>
<path d="M140.543 69.4397L127.646 150.203C127.564 150.717 127.101 151.082 126.581 151.042L121.652 150.662C121.163 150.624 120.773 150.237 120.733 149.747L117.964 116.411C117.923 115.922 117.534 115.534 117.044 115.496L110.269 114.973C109.707 114.93 109.22 115.359 109.193 115.923L107.003 161.692C106.976 162.255 106.489 162.685 105.927 162.642L97.4512 161.987C96.9736 161.95 96.5893 161.58 96.5347 161.104L87.3988 81.4861" stroke="#00C48E" stroke-width="15" stroke-linecap="square"/>
<g filter="url(#filter1_d_399_72)">
<path d="M143.122 75.2684L133.418 144.051L128.942 143.894L122.702 114.318L115.709 114.072L113.054 157.668L105.781 157.412L89.3707 82.6176" stroke="white" stroke-width="5" stroke-linecap="square"/>
</g>
<g filter="url(#filter2_d_399_72)">
<path d="M141.404 76.3279L133.398 144.611L128.922 144.453L122.972 114.607L115.699 114.351L113.034 158.227L105.761 157.971L88.9194 79.5207" stroke="white" stroke-width="5" stroke-linecap="square"/>
</g>
<path d="M49.6739 113.431L60.383 111.623C63.3052 111.13 66.0128 113.273 66.2047 116.23L66.8435 126.072C67.0452 129.181 64.3851 131.716 61.2894 131.364L50.3825 130.124C47.978 129.851 46.1143 127.895 45.9576 125.48L45.5166 118.685C45.3506 116.127 47.1461 113.858 49.6739 113.431Z" fill="#00C48E"/>
<path d="M37.9959 126.65L37.4524 118.275C37.3138 116.139 35.8301 114.327 33.7625 113.771L26.3226 111.768C23.0149 110.878 19.8116 113.502 20.0335 116.92L20.9055 130.357C21.1292 133.805 24.698 135.992 27.8712 134.626L34.9826 131.567C36.9262 130.73 38.1329 128.761 37.9959 126.65Z" fill="#00C48E"/>
<path d="M46.7841 98.2358L47.2017 91.1271C47.3497 88.6082 49.3513 86.5942 51.8693 86.4308L62.4902 85.7416C65.5188 85.545 68.0227 88.0701 67.8006 91.0969L67.4204 96.2787C67.2619 98.4394 65.7298 100.252 63.6257 100.769L52.9674 103.385C49.6986 104.187 46.5867 101.596 46.7841 98.2358Z" fill="#00C48E"/>
<path d="M37.3174 90.4365L36.9496 98.5912C36.7944 102.032 33.2874 104.29 30.0909 103.006L23.1486 100.217C20.718 99.2404 19.4529 96.5536 20.2487 94.058L22.8135 86.0153C23.7768 82.9946 27.2722 81.6217 30.0337 83.1794L31.0683 83.7631L34.7791 85.8562C36.421 86.7824 37.4024 88.5533 37.3174 90.4365Z" fill="#00C48E"/>
<path d="M55.1898 140.159L66.0804 140.966C68.3048 141.131 70.151 142.749 70.606 144.933L71.5814 149.614C72.2016 152.591 70.0441 155.427 67.0104 155.624L56.3705 156.314C53.8671 156.477 51.6308 154.759 51.1424 152.298L49.9161 146.119C49.2728 142.878 51.8945 139.915 55.1898 140.159Z" fill="#00C48E"/>
<path d="M42.2366 152.496L40.3429 145.614C39.5599 142.769 36.4962 141.218 33.7393 142.27L26.9029 144.879C24.2231 145.902 22.9513 148.964 24.1183 151.585L27.6904 159.605C28.9841 162.509 32.6247 163.484 35.197 161.615L40.355 157.867C42.0396 156.643 42.7892 154.503 42.2366 152.496Z" fill="#00C48E"/>
<path d="M42.3024 73.4413L42.2492 74.8871C42.1118 78.622 38.0748 80.8913 34.8127 79.0676L30.8917 76.8756C28.8291 75.7225 27.8554 73.2829 28.5571 71.0265L29.0708 69.3746C30.0735 66.1504 33.9179 64.8265 36.6932 66.7498L40.1537 69.1479C41.5551 70.119 42.365 71.7374 42.3024 73.4413Z" fill="#00C48E"/>
<path d="M51.1266 72.3565L52.0077 70.5073C52.787 68.8719 54.3899 67.7859 56.1977 67.6686L66.5391 66.9975C69.2948 66.8186 71.6736 68.9075 71.8524 71.6632L71.9061 72.49C72.0744 75.0828 70.2287 77.3725 67.6592 77.7583L56.3829 79.4519C52.4209 80.0469 49.4032 75.9734 51.1266 72.3565Z" fill="#00C48E"/>
<path d="M78.9745 57.6745L79.948 56.1151C82.1047 52.6601 79.447 48.2141 75.3827 48.4779L66.292 49.0679C64.7603 49.1673 63.3591 49.9647 62.4914 51.2309L61.4182 52.7969C59.0602 56.2377 61.704 60.883 65.8665 60.6128L75.0569 60.0164C76.6637 59.9121 78.1219 59.0404 78.9745 57.6745Z" fill="#00C48E"/>
<path d="M39.9834 60.6257L41.4756 61.7571C44.302 63.9 48.3852 62.137 48.7638 58.6105C48.9166 57.1871 48.3921 55.7746 47.3473 54.796L45.9805 53.5158C44.2138 51.861 41.474 51.8356 39.6769 53.4573C37.5085 55.4141 37.6558 58.8611 39.9834 60.6257Z" fill="#00C48E"/>
<path d="M36.6505 169.007L40.3489 166.025C43.3216 163.628 47.7755 165.313 48.4164 169.078L48.5858 170.073C48.8554 171.656 48.3477 173.273 47.2212 174.418L43.9629 177.73C41.5092 180.225 37.3181 179.492 35.856 176.313L35.2465 174.988C34.2896 172.908 34.8681 170.444 36.6505 169.007Z" fill="#00C48E"/>
<path d="M61.5657 175.061L60.6566 173.623C58.6281 170.416 60.7716 166.207 64.5585 165.961L72.9263 165.418C75.6819 165.239 78.0608 167.328 78.2396 170.084L78.3363 171.574C78.5151 174.329 76.4262 176.708 73.6706 176.887L66.1152 177.377C64.289 177.496 62.5439 176.607 61.5657 175.061Z" fill="#00C48E"/>
<path d="M48.9667 181.792L49.2636 181.511C51.1464 179.731 54.2443 180.554 54.9951 183.034C55.181 183.648 55.1938 184.302 55.0321 184.923L54.9291 185.318C54.4483 187.164 52.6124 188.315 50.7414 187.944C47.8708 187.375 46.8402 183.802 48.9667 181.792Z" fill="#00C48E"/>
<path d="M73.6382 191.872L72.7121 190.704C70.2068 187.543 72.282 182.87 76.3066 182.609L82.557 182.203C84.3962 182.084 86.1519 182.986 87.1258 184.55L87.8607 185.731C89.8575 188.939 87.7105 193.118 83.9395 193.363L77.8803 193.756C76.2428 193.862 74.6575 193.158 73.6382 191.872Z" fill="#00C48E"/>
<path d="M49.6739 113.431L60.383 111.623C63.3052 111.13 66.0128 113.273 66.2047 116.23L66.8435 126.072C67.0452 129.181 64.3851 131.716 61.2894 131.364L50.3825 130.124C47.978 129.851 46.1143 127.895 45.9576 125.48L45.5166 118.685C45.3506 116.127 47.1461 113.858 49.6739 113.431Z" stroke="#00C48E" stroke-width="3" stroke-linecap="square"/>
<path d="M37.9959 126.65L37.4524 118.275C37.3138 116.139 35.8301 114.327 33.7625 113.771L26.3226 111.768C23.0149 110.878 19.8116 113.502 20.0335 116.92L20.9055 130.357C21.1292 133.805 24.698 135.992 27.8712 134.626L34.9826 131.567C36.9262 130.73 38.1329 128.761 37.9959 126.65Z" stroke="#00C48E" stroke-width="3" stroke-linecap="square"/>
<path d="M46.7841 98.2358L47.2017 91.1271C47.3497 88.6082 49.3513 86.5942 51.8693 86.4308L62.4902 85.7416C65.5188 85.545 68.0227 88.0701 67.8006 91.0969L67.4204 96.2787C67.2619 98.4394 65.7298 100.252 63.6257 100.769L52.9674 103.385C49.6986 104.187 46.5867 101.596 46.7841 98.2358Z" stroke="#00C48E" stroke-width="3" stroke-linecap="square"/>
<path d="M37.3174 90.4365L36.9496 98.5912C36.7944 102.032 33.2874 104.29 30.0909 103.006L23.1486 100.217C20.718 99.2404 19.4529 96.5536 20.2487 94.058L22.8135 86.0153C23.7768 82.9946 27.2722 81.6217 30.0337 83.1794L31.0683 83.7631L34.7791 85.8562C36.421 86.7824 37.4024 88.5533 37.3174 90.4365Z" stroke="#00C48E" stroke-width="3" stroke-linecap="square"/>
<path d="M55.1898 140.159L66.0804 140.966C68.3048 141.131 70.151 142.749 70.606 144.933L71.5814 149.614C72.2016 152.591 70.0441 155.427 67.0104 155.624L56.3705 156.314C53.8671 156.477 51.6308 154.759 51.1424 152.298L49.9161 146.119C49.2728 142.878 51.8945 139.915 55.1898 140.159Z" stroke="#00C48E" stroke-width="3" stroke-linecap="square"/>
<path d="M42.2366 152.496L40.3429 145.614C39.5599 142.769 36.4962 141.218 33.7393 142.27L26.9029 144.879C24.2231 145.902 22.9513 148.964 24.1183 151.585L27.6904 159.605C28.9841 162.509 32.6247 163.484 35.197 161.615L40.355 157.867C42.0396 156.643 42.7892 154.503 42.2366 152.496Z" stroke="#00C48E" stroke-width="3" stroke-linecap="square"/>
<path d="M42.3024 73.4413L42.2492 74.8871C42.1118 78.622 38.0748 80.8913 34.8127 79.0676L30.8917 76.8756C28.8291 75.7225 27.8554 73.2829 28.5571 71.0265L29.0708 69.3746C30.0735 66.1504 33.9179 64.8265 36.6932 66.7498L40.1537 69.1479C41.5551 70.119 42.365 71.7374 42.3024 73.4413Z" stroke="#00C48E" stroke-width="3" stroke-linecap="square"/>
<path d="M51.1266 72.3565L52.0077 70.5073C52.787 68.8719 54.3899 67.7859 56.1977 67.6686L66.5391 66.9975C69.2948 66.8186 71.6736 68.9075 71.8524 71.6632L71.9061 72.49C72.0744 75.0828 70.2287 77.3725 67.6592 77.7583L56.3829 79.4519C52.4209 80.0469 49.4032 75.9734 51.1266 72.3565Z" stroke="#00C48E" stroke-width="3" stroke-linecap="square"/>
<path d="M78.9745 57.6745L79.948 56.1151C82.1047 52.6601 79.447 48.2141 75.3827 48.4779L66.292 49.0679C64.7603 49.1673 63.3591 49.9647 62.4914 51.2309L61.4182 52.7969C59.0602 56.2377 61.704 60.883 65.8665 60.6128L75.0569 60.0164C76.6637 59.9121 78.1219 59.0404 78.9745 57.6745Z" stroke="#00C48E" stroke-width="3" stroke-linecap="square"/>
<path d="M39.9834 60.6257L41.4756 61.7571C44.302 63.9 48.3852 62.137 48.7638 58.6105C48.9166 57.1871 48.3921 55.7746 47.3473 54.796L45.9805 53.5158C44.2138 51.861 41.474 51.8356 39.6769 53.4573C37.5085 55.4141 37.6558 58.8611 39.9834 60.6257Z" stroke="#00C48E" stroke-width="3" stroke-linecap="square"/>
<path d="M36.6505 169.007L40.3489 166.025C43.3216 163.628 47.7755 165.313 48.4164 169.078L48.5858 170.073C48.8554 171.656 48.3477 173.273 47.2212 174.418L43.9629 177.73C41.5092 180.225 37.3181 179.492 35.856 176.313L35.2465 174.988C34.2896 172.908 34.8681 170.444 36.6505 169.007Z" stroke="#00C48E" stroke-width="3" stroke-linecap="square"/>
<path d="M61.5657 175.061L60.6566 173.623C58.6281 170.416 60.7716 166.207 64.5585 165.961L72.9263 165.418C75.6819 165.239 78.0608 167.328 78.2396 170.084L78.3363 171.574C78.5151 174.329 76.4262 176.708 73.6706 176.887L66.1152 177.377C64.289 177.496 62.5439 176.607 61.5657 175.061Z" stroke="#00C48E" stroke-width="3" stroke-linecap="square"/>
<path d="M48.9667 181.792L49.2636 181.511C51.1464 179.731 54.2443 180.554 54.9951 183.034C55.181 183.648 55.1938 184.302 55.0321 184.923L54.9291 185.318C54.4483 187.164 52.6124 188.315 50.7414 187.944C47.8708 187.375 46.8402 183.802 48.9667 181.792Z" stroke="#00C48E" stroke-width="3" stroke-linecap="square"/>
<path d="M73.6382 191.872L72.7121 190.704C70.2068 187.543 72.282 182.87 76.3066 182.609L82.557 182.203C84.3962 182.084 86.1519 182.986 87.1258 184.55L87.8607 185.731C89.8575 188.939 87.7105 193.118 83.9395 193.363L77.8803 193.756C76.2428 193.862 74.6575 193.158 73.6382 191.872Z" stroke="#00C48E" stroke-width="3" stroke-linecap="square"/>
<path d="M58.01 191.582L59.6449 188.213C59.9588 187.567 60.832 187.452 61.3016 187.997L65.6184 192.999C66.2638 193.746 65.5494 194.878 64.5967 194.616L58.645 192.983C58.0417 192.817 57.7368 192.145 58.01 191.582Z" fill="#00C48E" stroke="#00C48E" stroke-width="3" stroke-linecap="square"/>
<path d="M50.5569 49.9338L52.3706 51.8229C52.789 52.2587 53.4974 52.2222 53.8746 51.7455L55.9892 49.0733C56.5674 48.3426 55.9298 47.2916 55.0185 47.4733L51.0902 48.2563C50.3134 48.4112 50.0104 49.3645 50.5569 49.9338Z" fill="#00C48E" stroke="#00C48E" stroke-width="3" stroke-linecap="square"/>
<path d="M94.8184 55.2707C92.5917 58.3899 90.6395 61.9699 88.9562 65.9043C85.8536 73.1557 82.0489 99.0649 80.7366 108.058M133.511 53.3813C135.775 55.7052 137.21 57.5227 138.813 60.0253C142.059 65.0966 144.513 70.6522 146.042 76.4763C150.025 91.6454 151.894 109.564 150.053 114.501" stroke="#00C48E" stroke-width="15" stroke-linecap="round"/>
<defs>
<filter id="filter0_f_399_72" x="0.57373" y="18.0315" width="299.091" height="205.062" filterUnits="userSpaceOnUse" color-interpolation-filters="sRGB">
<feFlood flood-opacity="0" result="BackgroundImageFix"/>
<feBlend mode="normal" in="SourceGraphic" in2="BackgroundImageFix" result="shape"/>
<feGaussianBlur stdDeviation="12.5" result="effect1_foregroundBlur_399_72"/>
</filter>
<filter id="filter1_d_399_72" x="82.3931" y="72.4436" width="67.5532" height="95.8088" filterUnits="userSpaceOnUse" color-interpolation-filters="sRGB">
<feFlood flood-opacity="0" result="BackgroundImageFix"/>
<feColorMatrix in="SourceAlpha" type="matrix" values="0 0 0 0 0 0 0 0 0 0 0 0 0 0 0 0 0 0 127 0" result="hardAlpha"/>
<feOffset dy="4"/>
<feGaussianBlur stdDeviation="2"/>
<feComposite in2="hardAlpha" operator="out"/>
<feColorMatrix type="matrix" values="0 0 0 0 1 0 0 0 0 1 0 0 0 0 1 0 0 0 1 0"/>
<feBlend mode="normal" in2="BackgroundImageFix" result="effect1_dropShadow_399_72"/>
<feBlend mode="normal" in="SourceGraphic" in2="effect1_dropShadow_399_72" result="shape"/>
</filter>
<filter id="filter2_d_399_72" x="81.9502" y="65.5537" width="66.2275" height="95.2578" filterUnits="userSpaceOnUse" color-interpolation-filters="sRGB">
<feFlood flood-opacity="0" result="BackgroundImageFix"/>
<feColorMatrix in="SourceAlpha" type="matrix" values="0 0 0 0 0 0 0 0 0 0 0 0 0 0 0 0 0 0 127 0" result="hardAlpha"/>
<feOffset dy="-4"/>
<feGaussianBlur stdDeviation="2"/>
<feComposite in2="hardAlpha" operator="out"/>
<feColorMatrix type="matrix" values="0 0 0 0 1 0 0 0 0 1 0 0 0 0 1 0 0 0 1 0"/>
<feBlend mode="normal" in2="BackgroundImageFix" result="effect1_dropShadow_399_72"/>
<feBlend mode="normal" in="SourceGraphic" in2="effect1_dropShadow_399_72" result="shape"/>
</filter>
<linearGradient id="paint0_linear_399_72" x1="231.661" y1="122.666" x2="98.7546" y2="89.6803" gradientUnits="userSpaceOnUse">
<stop stop-color="#00C48E"/>
<stop offset="0.974509" stop-color="#00C48E" stop-opacity="0"/>
</linearGradient>
<linearGradient id="paint1_linear_399_72" x1="225.676" y1="126.14" x2="93.319" y2="91.0149" gradientUnits="userSpaceOnUse">
<stop stop-color="#00C48E"/>
<stop offset="0.974509" stop-color="#00C48E" stop-opacity="0"/>
</linearGradient>
</defs>
</svg>
