<svg width="297" height="233" viewBox="0 0 297 233" fill="none" xmlns="http://www.w3.org/2000/svg">
<g filter="url(#filter0_f_219_469)">
<path d="M98.8826 70.195C96.7791 73.4976 94.9646 77.266 93.4295 81.3905C81.4823 113.492 86.4668 167.17 103.933 190.726C111.739 201.254 127.509 201.376 136.04 191.426C155.729 168.463 164.294 114.719 147.606 81.3905C144.862 75.9116 141.436 70.9844 137.265 66.8363" stroke="#00C48E" stroke-width="15" stroke-linecap="round"/>
<path d="M115.165 206.089C149.031 188.16 194.784 159.201 205.911 143.346C211.117 137.267 224.68 125.915 237.287 129.138C232.3 123.994 219.769 115.5 209.535 122.67C212.835 116.443 213.73 113.278 225.476 114.048C237.899 114.863 251.298 96.3443 253.703 88.1721C231.639 107.609 225.133 86.9754 210.427 97.5902C216.284 88.0966 228.995 88.4515 241.903 84.1499C254.887 79.8233 266.605 54.2824 262.642 40.3406C259.155 49.7124 248.354 66.9814 232.58 66.303C215.529 65.5698 193.735 62.4918 181.387 75.6682C184.934 68.8445 195.053 55.0205 207.15 54.3137C219.247 53.607 229.743 54.3906 233.478 54.8708C229.296 49.781 217.366 43.3492 201.8 43.3796C184.032 43.4144 157.062 58.6145 154.63 75.6682C150.014 73.7336 148.98 70.6114 157.995 56.8221C149.334 60.8509 136.527 54.8602 136.089 65.4352C133.859 60.0258 128.038 53.9587 116.565 53.4015C107.486 53.4015 97.4602 61.861 92.7741 76.8849L82.418 110.087L87.456 161.866L115.165 206.089Z" fill="url(#paint0_linear_219_469)"/>
<path d="M144.553 92.7336L139.583 161.219C139.545 161.741 139.11 162.146 138.585 162.146H135.293C134.818 162.146 134.409 161.812 134.314 161.347L127.924 130.198C127.829 129.733 127.419 129.399 126.944 129.399H121.203C120.651 129.399 120.203 129.847 120.203 130.399V175.7C120.203 176.253 119.755 176.7 119.203 176.7H113.437C112.973 176.7 112.571 176.382 112.464 175.931L92.7739 92.7336" stroke="#00C48E" stroke-width="15" stroke-linecap="square"/>
<path d="M143.434 81.6704L136.791 163.187C136.749 163.706 136.316 164.105 135.795 164.105H130.851C130.36 164.105 129.942 163.749 129.864 163.265L124.537 130.24C124.459 129.755 124.041 129.399 123.55 129.399H116.755C116.191 129.399 115.738 129.865 115.755 130.428L117.094 176.231C117.111 176.794 116.658 177.26 116.095 177.26H107.593C107.114 177.26 106.703 176.921 106.612 176.45L91.3745 97.7717" stroke="#00C48E" stroke-width="15" stroke-linecap="square"/>
<path d="M56.7813 120.68L67.585 119.519C70.5408 119.202 73.1191 121.518 73.1191 124.491V135.247C73.1191 138.379 70.273 140.74 67.1953 140.161L56.3916 138.13C54.0278 137.685 52.3154 135.621 52.3154 133.216V125.651C52.3154 123.097 54.2413 120.953 56.7813 120.68Z" fill="#00C48E"/>
<path d="M44.2947 133.887V124.689C44.2947 122.573 42.9628 120.686 40.969 119.978L33.6744 117.385C30.4195 116.229 27.0001 118.642 27.0001 122.097V136.597C27.0001 140.082 30.475 142.498 33.7414 141.284L41.0361 138.574C42.995 137.846 44.2947 135.977 44.2947 133.887Z" fill="#00C48E"/>
<path d="M54.871 104.915L55.8021 97.074C56.1008 94.5583 58.2338 92.6635 60.7672 92.6635H71.4209C74.4441 92.6635 76.7757 95.3256 76.3773 98.3223L75.6021 104.155C75.3171 106.299 73.6856 108.017 71.5589 108.412L60.7494 110.42C57.435 111.036 54.4735 108.262 54.871 104.915Z" fill="#00C48E"/>
<path d="M45.9863 95.6344L45.0523 104.483C44.6858 107.956 40.9633 109.993 37.8411 108.429L31.0222 105.015C28.7354 103.869 27.6814 101.183 28.5793 98.7884L31.7812 90.2486C32.9197 87.2122 36.6027 86.0461 39.2813 87.874L40.159 88.4729L43.8323 90.9796C45.3521 92.0167 46.1794 93.8047 45.9863 95.6344Z" fill="#00C48E"/>
<path d="M60.5757 148.929L71.3972 150.509C73.6039 150.831 75.3305 152.575 75.6298 154.785L76.3615 160.188C76.7679 163.189 74.4348 165.859 71.4067 165.859H60.7346C58.2151 165.859 56.0893 163.985 55.7739 161.485L54.8929 154.503C54.4792 151.223 57.3049 148.452 60.5757 148.929Z" fill="#00C48E"/>
<path d="M46.9023 161.17L45.3854 153.497C44.8049 150.56 41.7916 148.788 38.9431 149.709L31.891 151.987C29.2119 152.852 27.7754 155.758 28.7145 158.413L31.885 167.374C32.9691 170.438 36.6424 171.669 39.3544 169.878L44.7529 166.312C46.4467 165.193 47.296 163.162 46.9023 161.17Z" fill="#00C48E"/>
<path d="M52.058 78.2619L51.8782 80.1055C51.5102 83.8793 47.2397 85.8862 44.0995 83.7611L40.2651 81.1662C38.3622 79.8785 37.5819 77.4596 38.3735 75.3026L39.099 73.3259C40.2887 70.0846 44.3275 68.9959 46.985 71.2003L50.2737 73.9282C51.5506 74.9873 52.219 76.6108 52.058 78.2619Z" fill="#00C48E"/>
<path d="M60.682 78.3671L61.9312 76.0298C62.8009 74.4027 64.4959 73.3867 66.3408 73.3867H76.6411C79.4026 73.3867 81.6411 75.6253 81.6411 78.3867V79.7043C81.6411 82.2953 79.6618 84.4571 77.0808 84.6849L65.5313 85.7046C61.5738 86.054 58.8092 81.8709 60.682 78.3671Z" fill="#00C48E"/>
<path d="M89.6479 64.5134L91.0312 62.5003C93.3108 59.1827 90.9356 54.6687 86.9103 54.6687H77.6221C76.0495 54.6687 74.5686 55.4085 73.6242 56.6658L72.1122 58.6789C69.6367 61.9746 71.9881 66.6818 76.11 66.6818H85.527C87.1739 66.6818 88.7152 65.8708 89.6479 64.5134Z" fill="#00C48E"/>
<path d="M50.3833 64.789L51.7278 66.0055C54.4669 68.4838 58.8628 66.9514 59.4675 63.3074C59.6997 61.9085 59.2837 60.4799 58.3367 59.4245L57.1258 58.0748C55.4185 56.1719 52.5137 55.9557 50.5436 57.5849C48.3057 59.4355 48.2299 62.8406 50.3833 64.789Z" fill="#00C48E"/>
<path d="M40.048 177.882L43.9928 174.977C47.1132 172.679 51.5487 174.651 51.9331 178.507L52.0699 179.88C52.2246 181.432 51.6462 182.967 50.5058 184.031L47.0465 187.259C44.4312 189.7 40.1739 188.684 38.9414 185.326L38.3191 183.631C37.5529 181.543 38.2574 179.201 40.048 177.882Z" fill="#00C48E"/>
<path d="M64.6991 185.801L63.6491 183.788C61.9127 180.459 64.3278 176.476 68.0822 176.476H76.6411C79.4026 176.476 81.6411 178.714 81.6411 181.476V183.489C81.6411 186.25 79.4026 188.489 76.6411 188.489H69.1323C67.2692 188.489 65.5607 187.453 64.6991 185.801Z" fill="#00C48E"/>
<path d="M51.4766 192.101L51.8316 191.793C53.8618 190.033 57.0361 191.079 57.6214 193.702C57.7578 194.313 57.7301 194.949 57.541 195.546L57.3992 195.995C56.8004 197.885 54.8113 198.962 52.9006 198.43C50.0731 197.642 49.2591 194.024 51.4766 192.101Z" fill="#00C48E"/>
<path d="M75.6465 204.129L74.4985 202.396C72.2975 199.072 74.6809 194.635 78.6673 194.635H85.1025C86.9782 194.635 88.6962 195.685 89.5519 197.354L90.4407 199.088C92.1465 202.415 89.7303 206.369 85.9913 206.369H79.8154C78.1381 206.369 76.5726 205.528 75.6465 204.129Z" fill="#00C48E"/>
<path d="M56.7813 120.68L67.585 119.519C70.5408 119.202 73.1191 121.518 73.1191 124.491V135.247C73.1191 138.379 70.273 140.74 67.1953 140.161L56.3916 138.13C54.0278 137.685 52.3154 135.621 52.3154 133.216V125.651C52.3154 123.097 54.2413 120.953 56.7813 120.68Z" stroke="#00C48E" stroke-width="3" stroke-linecap="square"/>
<path d="M44.2947 133.887V124.689C44.2947 122.573 42.9628 120.686 40.969 119.978L33.6744 117.385C30.4195 116.229 27.0001 118.642 27.0001 122.097V136.597C27.0001 140.082 30.475 142.498 33.7414 141.284L41.0361 138.574C42.995 137.846 44.2947 135.977 44.2947 133.887Z" stroke="#00C48E" stroke-width="3" stroke-linecap="square"/>
<path d="M54.871 104.915L55.8021 97.074C56.1008 94.5583 58.2338 92.6635 60.7672 92.6635H71.4209C74.4441 92.6635 76.7757 95.3256 76.3773 98.3223L75.6021 104.155C75.3171 106.299 73.6856 108.017 71.5589 108.412L60.7494 110.42C57.435 111.036 54.4735 108.262 54.871 104.915Z" stroke="#00C48E" stroke-width="3" stroke-linecap="square"/>
<path d="M45.9863 95.6344L45.0523 104.483C44.6858 107.956 40.9633 109.993 37.8411 108.429L31.0222 105.015C28.7354 103.869 27.6814 101.183 28.5793 98.7884L31.7812 90.2486C32.9197 87.2122 36.6027 86.0461 39.2813 87.874L40.159 88.4729L43.8323 90.9796C45.3521 92.0167 46.1794 93.8047 45.9863 95.6344Z" stroke="#00C48E" stroke-width="3" stroke-linecap="square"/>
<path d="M60.5757 148.929L71.3972 150.509C73.6039 150.831 75.3305 152.575 75.6298 154.785L76.3615 160.188C76.7679 163.189 74.4348 165.859 71.4067 165.859H60.7346C58.2151 165.859 56.0893 163.985 55.7739 161.485L54.8929 154.503C54.4792 151.223 57.3049 148.452 60.5757 148.929Z" stroke="#00C48E" stroke-width="3" stroke-linecap="square"/>
<path d="M46.9023 161.17L45.3854 153.497C44.8049 150.56 41.7916 148.788 38.9431 149.709L31.891 151.987C29.2119 152.852 27.7754 155.758 28.7145 158.413L31.885 167.374C32.9691 170.438 36.6424 171.669 39.3544 169.878L44.7529 166.312C46.4467 165.193 47.296 163.162 46.9023 161.17Z" stroke="#00C48E" stroke-width="3" stroke-linecap="square"/>
<path d="M52.058 78.2619L51.8782 80.1055C51.5102 83.8793 47.2397 85.8862 44.0995 83.7611L40.2651 81.1662C38.3622 79.8785 37.5819 77.4596 38.3735 75.3026L39.099 73.3259C40.2887 70.0846 44.3275 68.9959 46.985 71.2003L50.2737 73.9282C51.5506 74.9873 52.219 76.6108 52.058 78.2619Z" stroke="#00C48E" stroke-width="3" stroke-linecap="square"/>
<path d="M60.682 78.3671L61.9312 76.0298C62.8009 74.4027 64.4959 73.3867 66.3408 73.3867H76.6411C79.4026 73.3867 81.6411 75.6253 81.6411 78.3867V79.7043C81.6411 82.2953 79.6618 84.4571 77.0808 84.6849L65.5313 85.7046C61.5738 86.054 58.8092 81.8709 60.682 78.3671Z" stroke="#00C48E" stroke-width="3" stroke-linecap="square"/>
<path d="M89.6479 64.5134L91.0312 62.5003C93.3108 59.1827 90.9356 54.6687 86.9103 54.6687H77.6221C76.0495 54.6687 74.5686 55.4085 73.6242 56.6658L72.1122 58.6789C69.6367 61.9746 71.9881 66.6818 76.11 66.6818H85.527C87.1739 66.6818 88.7152 65.8708 89.6479 64.5134Z" stroke="#00C48E" stroke-width="3" stroke-linecap="square"/>
<path d="M50.3833 64.789L51.7278 66.0055C54.4669 68.4838 58.8628 66.9514 59.4675 63.3074C59.6997 61.9085 59.2837 60.4799 58.3367 59.4245L57.1258 58.0748C55.4185 56.1719 52.5137 55.9557 50.5436 57.5849C48.3057 59.4355 48.2299 62.8406 50.3833 64.789Z" stroke="#00C48E" stroke-width="3" stroke-linecap="square"/>
<path d="M40.048 177.882L43.9928 174.977C47.1132 172.679 51.5487 174.651 51.9331 178.507L52.0699 179.88C52.2246 181.432 51.6462 182.967 50.5058 184.031L47.0465 187.259C44.4312 189.7 40.1739 188.684 38.9414 185.326L38.3191 183.631C37.5529 181.543 38.2574 179.201 40.048 177.882Z" stroke="#00C48E" stroke-width="3" stroke-linecap="square"/>
<path d="M64.6991 185.801L63.6491 183.788C61.9127 180.459 64.3278 176.476 68.0822 176.476H76.6411C79.4026 176.476 81.6411 178.714 81.6411 181.476V183.489C81.6411 186.25 79.4026 188.489 76.6411 188.489H69.1323C67.2692 188.489 65.5607 187.453 64.6991 185.801Z" stroke="#00C48E" stroke-width="3" stroke-linecap="square"/>
<path d="M51.4766 192.101L51.8316 191.793C53.8618 190.033 57.0361 191.079 57.6214 193.702C57.7578 194.313 57.7301 194.949 57.541 195.546L57.3992 195.995C56.8004 197.885 54.8113 198.962 52.9006 198.43C50.0731 197.642 49.2591 194.024 51.4766 192.101Z" stroke="#00C48E" stroke-width="3" stroke-linecap="square"/>
<path d="M75.6465 204.129L74.4985 202.396C72.2975 199.072 74.6809 194.635 78.6673 194.635H85.1025C86.9782 194.635 88.6962 195.685 89.5519 197.354L90.4407 199.088C92.1465 202.415 89.7303 206.369 85.9913 206.369H79.8154C78.1381 206.369 76.5726 205.528 75.6465 204.129Z" stroke="#00C48E" stroke-width="3" stroke-linecap="square"/>
<path d="M60.0231 202.827L61.9036 199.367C62.2551 198.721 63.1613 198.662 63.5926 199.259L67.6429 204.86C68.2196 205.658 67.4186 206.721 66.4929 206.387L60.5621 204.245C59.9861 204.037 59.7307 203.365 60.0231 202.827Z" fill="#00C48E" stroke="#00C48E" stroke-width="3" stroke-linecap="square"/>
<path d="M61.7316 54.4252L63.4738 56.5861C63.8629 57.0687 64.5974 57.0763 65.0071 56.6019L67.3641 53.8723C67.9685 53.1724 67.3967 52.1052 66.485 52.2317L62.3858 52.8003C61.6118 52.9077 61.2443 53.8207 61.7316 54.4252Z" fill="#00C48E" stroke="#00C48E" stroke-width="3" stroke-linecap="square"/>
<path d="M99.2152 70.25C97.0997 73.4457 95.2747 77.0922 93.7309 81.0833C90.8854 88.4395 87.9949 114.467 87 123.5M137.818 67C140.162 69.2428 141.66 71.0087 143.349 73.4533C146.772 78.4073 149.421 83.873 151.154 89.6397C155.668 104.659 158.166 122.501 156.5 127.5" stroke="#00C48E" stroke-width="15" stroke-linecap="round"/>
</g>
<path d="M91.8826 70.195C89.7791 73.4976 87.9646 77.266 86.4295 81.3905C74.4823 113.492 79.4668 167.17 96.9326 190.726C104.739 201.254 120.509 201.376 129.04 191.426C148.729 168.463 157.294 114.719 140.606 81.3905C137.862 75.9116 134.436 70.9844 130.265 66.8363" stroke="#00C48E" stroke-width="15" stroke-linecap="round"/>
<path d="M108.165 206.089C142.031 188.16 187.784 159.201 198.911 143.346C204.117 137.267 217.68 125.915 230.287 129.138C225.3 123.994 212.769 115.5 202.535 122.67C205.835 116.443 206.73 113.278 218.476 114.048C230.899 114.863 244.298 96.3443 246.703 88.1721C224.639 107.609 218.133 86.9754 203.427 97.5902C209.284 88.0966 221.995 88.4515 234.903 84.1499C247.887 79.8233 259.605 54.2824 255.642 40.3406C252.155 49.7124 241.354 66.9814 225.58 66.303C208.529 65.5698 186.735 62.4918 174.387 75.6682C177.934 68.8445 188.053 55.0205 200.15 54.3137C212.247 53.607 222.743 54.3906 226.478 54.8708C222.296 49.781 210.366 43.3492 194.8 43.3796C177.032 43.4144 150.062 58.6145 147.63 75.6682C143.014 73.7336 141.98 70.6114 150.995 56.8221C142.334 60.8509 129.527 54.8602 129.089 65.4352C126.859 60.0258 121.038 53.9587 109.565 53.4015C100.486 53.4015 90.4602 61.861 85.7741 76.8849L75.418 110.087L80.456 161.866L108.165 206.089Z" fill="url(#paint1_linear_219_469)"/>
<path d="M137.553 92.7336L132.583 161.219C132.545 161.741 132.11 162.146 131.585 162.146H128.293C127.818 162.146 127.409 161.812 127.314 161.347L120.924 130.198C120.829 129.733 120.419 129.399 119.944 129.399H114.203C113.651 129.399 113.203 129.847 113.203 130.399V175.7C113.203 176.253 112.755 176.7 112.203 176.7H106.437C105.973 176.7 105.571 176.382 105.464 175.931L85.7739 92.7336" stroke="#00C48E" stroke-width="15" stroke-linecap="square"/>
<path d="M136.434 81.6704L129.791 163.187C129.749 163.706 129.316 164.105 128.795 164.105H123.851C123.36 164.105 122.942 163.749 122.864 163.265L117.537 130.24C117.459 129.755 117.041 129.399 116.55 129.399H109.755C109.191 129.399 108.738 129.865 108.755 130.428L110.094 176.231C110.111 176.794 109.658 177.26 109.095 177.26H100.593C100.114 177.26 99.7026 176.921 99.6116 176.45L84.3745 97.7717" stroke="#00C48E" stroke-width="15" stroke-linecap="square"/>
<g filter="url(#filter1_d_219_469)">
<path d="M141.192 88.5354L133.915 157.617H129.437L122.16 128.28H115.163L114.043 171.942H106.766L87.7334 97.7717" stroke="white" stroke-width="5" stroke-linecap="square"/>
</g>
<g filter="url(#filter2_d_219_469)">
<path d="M139.513 89.6548L133.915 158.177H129.437L122.439 128.559H115.162L114.043 172.502H106.766L87.1733 94.6928" stroke="white" stroke-width="5" stroke-linecap="square"/>
</g>
<path d="M49.7813 120.68L60.585 119.519C63.5408 119.202 66.1191 121.518 66.1191 124.491V135.247C66.1191 138.379 63.273 140.74 60.1953 140.161L49.3916 138.13C47.0278 137.685 45.3154 135.621 45.3154 133.216V125.651C45.3154 123.097 47.2413 120.953 49.7813 120.68Z" fill="#00C48E"/>
<path d="M37.2947 133.887V124.689C37.2947 122.573 35.9628 120.686 33.969 119.978L26.6744 117.385C23.4195 116.229 20.0001 118.642 20.0001 122.097V136.597C20.0001 140.082 23.475 142.498 26.7414 141.284L34.0361 138.574C35.995 137.846 37.2947 135.977 37.2947 133.887Z" fill="#00C48E"/>
<path d="M47.871 104.915L48.8021 97.074C49.1008 94.5583 51.2338 92.6635 53.7672 92.6635H64.4209C67.4441 92.6635 69.7757 95.3256 69.3773 98.3223L68.6021 104.155C68.3171 106.299 66.6856 108.017 64.5589 108.412L53.7494 110.42C50.435 111.036 47.4735 108.262 47.871 104.915Z" fill="#00C48E"/>
<path d="M38.9863 95.6344L38.0523 104.483C37.6858 107.956 33.9633 109.993 30.8411 108.429L24.0222 105.015C21.7354 103.869 20.6814 101.183 21.5793 98.7884L24.7812 90.2486C25.9197 87.2122 29.6027 86.0461 32.2813 87.874L33.159 88.4729L36.8323 90.9796C38.3521 92.0167 39.1794 93.8047 38.9863 95.6344Z" fill="#00C48E"/>
<path d="M53.5757 148.929L64.3972 150.509C66.6039 150.831 68.3305 152.575 68.6298 154.785L69.3615 160.188C69.7679 163.189 67.4348 165.859 64.4067 165.859H53.7346C51.2151 165.859 49.0893 163.985 48.7739 161.485L47.8929 154.503C47.4792 151.223 50.3049 148.452 53.5757 148.929Z" fill="#00C48E"/>
<path d="M39.9023 161.17L38.3854 153.497C37.8049 150.56 34.7916 148.788 31.9431 149.709L24.891 151.987C22.2119 152.852 20.7754 155.758 21.7145 158.413L24.885 167.374C25.9691 170.438 29.6424 171.669 32.3544 169.878L37.7529 166.312C39.4467 165.193 40.296 163.162 39.9023 161.17Z" fill="#00C48E"/>
<path d="M45.058 78.2619L44.8782 80.1055C44.5102 83.8793 40.2397 85.8862 37.0995 83.7611L33.2651 81.1662C31.3622 79.8785 30.5819 77.4596 31.3735 75.3026L32.099 73.3259C33.2887 70.0846 37.3275 68.9959 39.985 71.2003L43.2737 73.9282C44.5506 74.9873 45.219 76.6108 45.058 78.2619Z" fill="#00C48E"/>
<path d="M53.682 78.3671L54.9312 76.0298C55.8009 74.4027 57.4959 73.3867 59.3408 73.3867H69.6411C72.4026 73.3867 74.6411 75.6253 74.6411 78.3867V79.7043C74.6411 82.2953 72.6618 84.4571 70.0808 84.6849L58.5313 85.7046C54.5738 86.054 51.8092 81.8709 53.682 78.3671Z" fill="#00C48E"/>
<path d="M82.6479 64.5134L84.0312 62.5003C86.3108 59.1827 83.9356 54.6687 79.9103 54.6687H70.6221C69.0495 54.6687 67.5686 55.4085 66.6242 56.6658L65.1122 58.6789C62.6367 61.9746 64.9881 66.6818 69.11 66.6818H78.527C80.1739 66.6818 81.7152 65.8708 82.6479 64.5134Z" fill="#00C48E"/>
<path d="M43.3833 64.789L44.7278 66.0055C47.4669 68.4838 51.8628 66.9514 52.4675 63.3074C52.6997 61.9085 52.2837 60.4799 51.3367 59.4245L50.1258 58.0748C48.4185 56.1719 45.5137 55.9557 43.5436 57.5849C41.3057 59.4355 41.2299 62.8406 43.3833 64.789Z" fill="#00C48E"/>
<path d="M33.048 177.882L36.9928 174.977C40.1132 172.679 44.5487 174.651 44.9331 178.507L45.0699 179.88C45.2246 181.432 44.6462 182.967 43.5058 184.031L40.0465 187.259C37.4312 189.7 33.1739 188.684 31.9414 185.326L31.3191 183.631C30.5529 181.543 31.2574 179.201 33.048 177.882Z" fill="#00C48E"/>
<path d="M57.6991 185.801L56.6491 183.788C54.9127 180.459 57.3278 176.476 61.0822 176.476H69.6411C72.4026 176.476 74.6411 178.714 74.6411 181.476V183.489C74.6411 186.25 72.4026 188.489 69.6411 188.489H62.1323C60.2692 188.489 58.5607 187.453 57.6991 185.801Z" fill="#00C48E"/>
<path d="M44.4766 192.101L44.8316 191.793C46.8618 190.033 50.0361 191.079 50.6214 193.702C50.7578 194.313 50.7301 194.949 50.541 195.546L50.3992 195.995C49.8004 197.885 47.8113 198.962 45.9006 198.43C43.0731 197.642 42.2591 194.024 44.4766 192.101Z" fill="#00C48E"/>
<path d="M68.6465 204.129L67.4985 202.396C65.2975 199.072 67.6809 194.635 71.6673 194.635H78.1025C79.9782 194.635 81.6962 195.685 82.5519 197.354L83.4407 199.088C85.1465 202.415 82.7303 206.369 78.9913 206.369H72.8154C71.1381 206.369 69.5726 205.528 68.6465 204.129Z" fill="#00C48E"/>
<path d="M49.7813 120.68L60.585 119.519C63.5408 119.202 66.1191 121.518 66.1191 124.491V135.247C66.1191 138.379 63.273 140.74 60.1953 140.161L49.3916 138.13C47.0278 137.685 45.3154 135.621 45.3154 133.216V125.651C45.3154 123.097 47.2413 120.953 49.7813 120.68Z" stroke="#00C48E" stroke-width="3" stroke-linecap="square"/>
<path d="M37.2947 133.887V124.689C37.2947 122.573 35.9628 120.686 33.969 119.978L26.6744 117.385C23.4195 116.229 20.0001 118.642 20.0001 122.097V136.597C20.0001 140.082 23.475 142.498 26.7414 141.284L34.0361 138.574C35.995 137.846 37.2947 135.977 37.2947 133.887Z" stroke="#00C48E" stroke-width="3" stroke-linecap="square"/>
<path d="M47.871 104.915L48.8021 97.074C49.1008 94.5583 51.2338 92.6635 53.7672 92.6635H64.4209C67.4441 92.6635 69.7757 95.3256 69.3773 98.3223L68.6021 104.155C68.3171 106.299 66.6856 108.017 64.5589 108.412L53.7494 110.42C50.435 111.036 47.4735 108.262 47.871 104.915Z" stroke="#00C48E" stroke-width="3" stroke-linecap="square"/>
<path d="M38.9863 95.6344L38.0523 104.483C37.6858 107.956 33.9633 109.993 30.8411 108.429L24.0222 105.015C21.7354 103.869 20.6814 101.183 21.5793 98.7884L24.7812 90.2486C25.9197 87.2122 29.6027 86.0461 32.2813 87.874L33.159 88.4729L36.8323 90.9796C38.3521 92.0167 39.1794 93.8047 38.9863 95.6344Z" stroke="#00C48E" stroke-width="3" stroke-linecap="square"/>
<path d="M53.5757 148.929L64.3972 150.509C66.6039 150.831 68.3305 152.575 68.6298 154.785L69.3615 160.188C69.7679 163.189 67.4348 165.859 64.4067 165.859H53.7346C51.2151 165.859 49.0893 163.985 48.7739 161.485L47.8929 154.503C47.4792 151.223 50.3049 148.452 53.5757 148.929Z" stroke="#00C48E" stroke-width="3" stroke-linecap="square"/>
<path d="M39.9023 161.17L38.3854 153.497C37.8049 150.56 34.7916 148.788 31.9431 149.709L24.891 151.987C22.2119 152.852 20.7754 155.758 21.7145 158.413L24.885 167.374C25.9691 170.438 29.6424 171.669 32.3544 169.878L37.7529 166.312C39.4467 165.193 40.296 163.162 39.9023 161.17Z" stroke="#00C48E" stroke-width="3" stroke-linecap="square"/>
<path d="M45.058 78.2619L44.8782 80.1055C44.5102 83.8793 40.2397 85.8862 37.0995 83.7611L33.2651 81.1662C31.3622 79.8785 30.5819 77.4596 31.3735 75.3026L32.099 73.3259C33.2887 70.0846 37.3275 68.9959 39.985 71.2003L43.2737 73.9282C44.5506 74.9873 45.219 76.6108 45.058 78.2619Z" stroke="#00C48E" stroke-width="3" stroke-linecap="square"/>
<path d="M53.682 78.3671L54.9312 76.0298C55.8009 74.4027 57.4959 73.3867 59.3408 73.3867H69.6411C72.4026 73.3867 74.6411 75.6253 74.6411 78.3867V79.7043C74.6411 82.2953 72.6618 84.4571 70.0808 84.6849L58.5313 85.7046C54.5738 86.054 51.8092 81.8709 53.682 78.3671Z" stroke="#00C48E" stroke-width="3" stroke-linecap="square"/>
<path d="M82.6479 64.5134L84.0312 62.5003C86.3108 59.1827 83.9356 54.6687 79.9103 54.6687H70.6221C69.0495 54.6687 67.5686 55.4085 66.6242 56.6658L65.1122 58.6789C62.6367 61.9746 64.9881 66.6818 69.11 66.6818H78.527C80.1739 66.6818 81.7152 65.8708 82.6479 64.5134Z" stroke="#00C48E" stroke-width="3" stroke-linecap="square"/>
<path d="M43.3833 64.789L44.7278 66.0055C47.4669 68.4838 51.8628 66.9514 52.4675 63.3074C52.6997 61.9085 52.2837 60.4799 51.3367 59.4245L50.1258 58.0748C48.4185 56.1719 45.5137 55.9557 43.5436 57.5849C41.3057 59.4355 41.2299 62.8406 43.3833 64.789Z" stroke="#00C48E" stroke-width="3" stroke-linecap="square"/>
<path d="M33.048 177.882L36.9928 174.977C40.1132 172.679 44.5487 174.651 44.9331 178.507L45.0699 179.88C45.2246 181.432 44.6462 182.967 43.5058 184.031L40.0465 187.259C37.4312 189.7 33.1739 188.684 31.9414 185.326L31.3191 183.631C30.5529 181.543 31.2574 179.201 33.048 177.882Z" stroke="#00C48E" stroke-width="3" stroke-linecap="square"/>
<path d="M57.6991 185.801L56.6491 183.788C54.9127 180.459 57.3278 176.476 61.0822 176.476H69.6411C72.4026 176.476 74.6411 178.714 74.6411 181.476V183.489C74.6411 186.25 72.4026 188.489 69.6411 188.489H62.1323C60.2692 188.489 58.5607 187.453 57.6991 185.801Z" stroke="#00C48E" stroke-width="3" stroke-linecap="square"/>
<path d="M44.4766 192.101L44.8316 191.793C46.8618 190.033 50.0361 191.079 50.6214 193.702C50.7578 194.313 50.7301 194.949 50.541 195.546L50.3992 195.995C49.8004 197.885 47.8113 198.962 45.9006 198.43C43.0731 197.642 42.2591 194.024 44.4766 192.101Z" stroke="#00C48E" stroke-width="3" stroke-linecap="square"/>
<path d="M68.6465 204.129L67.4985 202.396C65.2975 199.072 67.6809 194.635 71.6673 194.635H78.1025C79.9782 194.635 81.6962 195.685 82.5519 197.354L83.4407 199.088C85.1465 202.415 82.7303 206.369 78.9913 206.369H72.8154C71.1381 206.369 69.5726 205.528 68.6465 204.129Z" stroke="#00C48E" stroke-width="3" stroke-linecap="square"/>
<path d="M53.0231 202.827L54.9036 199.367C55.2551 198.721 56.1613 198.662 56.5926 199.259L60.6429 204.86C61.2196 205.658 60.4186 206.721 59.4929 206.387L53.5621 204.245C52.9861 204.037 52.7307 203.365 53.0231 202.827Z" fill="#00C48E" stroke="#00C48E" stroke-width="3" stroke-linecap="square"/>
<path d="M54.7316 54.4252L56.4738 56.5861C56.8629 57.0687 57.5974 57.0763 58.0071 56.6019L60.3641 53.8723C60.9685 53.1724 60.3967 52.1052 59.485 52.2317L55.3858 52.8003C54.6118 52.9077 54.2443 53.8207 54.7316 54.4252Z" fill="#00C48E" stroke="#00C48E" stroke-width="3" stroke-linecap="square"/>
<path d="M92.2152 70.25C90.0997 73.4457 88.2747 77.0922 86.7309 81.0833C83.8854 88.4395 80.9949 114.467 80 123.5M130.818 67C133.162 69.2428 134.66 71.0087 136.349 73.4533C139.772 78.4073 142.421 83.873 144.154 89.6397C148.668 104.659 151.166 122.501 149.5 127.5" stroke="#00C48E" stroke-width="15" stroke-linecap="round"/>
<path d="M159.796 99.925L158.184 114.455L154.571 114.682L155.164 109.434L151.271 109.679L150.699 114.925L147.086 115.152L148.718 100.621L152.311 100.395L151.615 106.531L155.507 106.287L156.203 100.151L159.796 99.925ZM171.024 113.648L161.004 114.278L162.636 99.7466L172.656 99.1171L172.293 102.266L165.866 102.67L165.576 105.393L170.886 105.06L170.522 108.209L165.213 108.542L164.96 110.903L171.388 110.499L171.024 113.648ZM183.344 112.874L173.324 113.504L174.956 98.9726L184.976 98.343L184.613 101.492L178.185 101.896L177.895 104.619L183.205 104.286L182.842 107.435L177.532 107.768L177.28 110.129L183.707 109.725L183.344 112.874ZM194.745 112.158L185.643 112.73L187.275 98.1986L190.868 97.9728L189.599 109.355L195.108 109.009L194.745 112.158ZM201.029 102.404L204.085 97.1424L207.678 96.9167L202.085 106.146L201.455 111.736L197.842 111.963L198.473 106.373L194.883 97.7206L198.695 97.481L200.57 102.433L201.029 102.404Z" fill="white"/>
<path d="M152.213 120.619C155.422 120.443 157.098 121.666 157.242 124.288C157.266 124.728 157.246 125.203 157.18 125.714L156.701 129.746C156.483 131.614 155.866 133.024 154.85 133.974C153.834 134.925 152.361 135.453 150.43 135.559C148.5 135.665 147.131 135.293 146.323 134.443C145.77 133.859 145.464 133.028 145.405 131.95C145.378 131.47 145.403 130.942 145.478 130.363L145.957 126.331C146.387 122.728 148.472 120.825 152.213 120.619ZM150.799 132.434C151.465 132.398 151.988 132.195 152.369 131.827C152.749 131.459 152.993 130.805 153.102 129.864L153.57 125.993C153.595 125.724 153.602 125.483 153.591 125.27C153.531 124.192 152.956 123.683 151.864 123.743C150.494 123.845 149.718 124.669 149.536 126.214L149.068 130.086C149.033 130.422 149.025 130.769 149.045 131.129C149.096 132.061 149.681 132.496 150.799 132.434ZM166.041 119.999C167.559 119.916 168.656 120.189 169.331 120.82C169.838 121.299 170.113 121.925 170.156 122.697C170.17 122.964 170.159 123.245 170.122 123.54L169.928 125.113C169.816 125.988 169.574 126.702 169.204 127.256C168.847 127.81 168.436 128.213 167.969 128.466L170.107 134.197L166.073 134.419L164.1 129.139L162.862 129.207L162.338 134.624L158.504 134.835L160.25 120.317L166.041 119.999ZM164.954 123.183L163.457 123.266L163.128 126.769L164.526 126.692C165.232 126.653 165.729 126.459 166.017 126.11C166.304 125.747 166.432 125.286 166.401 124.726C166.342 123.648 165.86 123.134 164.954 123.183ZM180.716 133.614L171.609 134.115L173.355 119.597L176.95 119.399L175.592 130.771L181.104 130.468L180.716 133.614ZM189.653 118.701C191.397 118.605 192.666 118.976 193.46 119.814C194.043 120.45 194.361 121.267 194.416 122.265C194.436 122.625 194.423 123.006 194.379 123.409L193.845 127.905C193.661 129.424 193.075 130.665 192.086 131.627C191.098 132.59 189.778 133.116 188.127 133.207L182.316 133.526L184.062 119.009L189.653 118.701ZM188.566 121.886L187.268 121.957L186.298 130.183L188.195 130.078C188.821 130.044 189.298 129.851 189.626 129.499C189.966 129.133 190.182 128.56 190.273 127.781L190.672 124.474C190.709 124.178 190.721 123.911 190.708 123.671C190.638 122.406 189.924 121.811 188.566 121.886Z" fill="white"/>
<defs>
<filter id="filter0_f_219_469" x="0.5" y="15.3406" width="287.925" height="217.615" filterUnits="userSpaceOnUse" color-interpolation-filters="sRGB">
<feFlood flood-opacity="0" result="BackgroundImageFix"/>
<feBlend mode="normal" in="SourceGraphic" in2="BackgroundImageFix" result="shape"/>
<feGaussianBlur stdDeviation="12.5" result="effect1_foregroundBlur_219_469"/>
</filter>
<filter id="filter1_d_219_469" x="80.6904" y="85.7872" width="67.25" height="96.6552" filterUnits="userSpaceOnUse" color-interpolation-filters="sRGB">
<feFlood flood-opacity="0" result="BackgroundImageFix"/>
<feColorMatrix in="SourceAlpha" type="matrix" values="0 0 0 0 0 0 0 0 0 0 0 0 0 0 0 0 0 0 127 0" result="hardAlpha"/>
<feOffset dy="4"/>
<feGaussianBlur stdDeviation="2"/>
<feComposite in2="hardAlpha" operator="out"/>
<feColorMatrix type="matrix" values="0 0 0 0 1 0 0 0 0 1 0 0 0 0 1 0 0 0 1 0"/>
<feBlend mode="normal" in2="BackgroundImageFix" result="effect1_dropShadow_219_469"/>
<feBlend mode="normal" in="SourceGraphic" in2="effect1_dropShadow_219_469" result="shape"/>
</filter>
<filter id="filter2_d_219_469" x="80.1387" y="78.9595" width="66.0693" height="96.0425" filterUnits="userSpaceOnUse" color-interpolation-filters="sRGB">
<feFlood flood-opacity="0" result="BackgroundImageFix"/>
<feColorMatrix in="SourceAlpha" type="matrix" values="0 0 0 0 0 0 0 0 0 0 0 0 0 0 0 0 0 0 127 0" result="hardAlpha"/>
<feOffset dy="-4"/>
<feGaussianBlur stdDeviation="2"/>
<feComposite in2="hardAlpha" operator="out"/>
<feColorMatrix type="matrix" values="0 0 0 0 1 0 0 0 0 1 0 0 0 0 1 0 0 0 1 0"/>
<feBlend mode="normal" in2="BackgroundImageFix" result="effect1_dropShadow_219_469"/>
<feBlend mode="normal" in="SourceGraphic" in2="effect1_dropShadow_219_469" result="shape"/>
</filter>
<linearGradient id="paint0_linear_219_469" x1="236.27" y1="91.894" x2="100.331" y2="108.407" gradientUnits="userSpaceOnUse">
<stop stop-color="#00C48E"/>
<stop offset="0.974509" stop-color="#00C48E" stop-opacity="0"/>
</linearGradient>
<linearGradient id="paint1_linear_219_469" x1="229.27" y1="91.894" x2="93.3309" y2="108.407" gradientUnits="userSpaceOnUse">
<stop stop-color="#00C48E"/>
<stop offset="0.974509" stop-color="#00C48E" stop-opacity="0"/>
</linearGradient>
</defs>
</svg>
